# Blender 3.6.21
# www.blender.org
mtllib capo_carro.mtl
o capo_carro
v 1.199300 -0.126200 0.327900
v 1.178600 -0.113800 0.328300
v 1.168700 -0.127700 0.409400
v 1.152100 -0.116600 0.410100
v 1.204700 -0.112900 0.248100
v 1.222500 -0.125800 0.240800
v 1.150600 -0.116600 -0.156200
v 1.177500 -0.113800 -0.075900
v 1.167200 -0.127700 -0.157200
v 1.198200 -0.126200 -0.075800
v 1.204000 -0.112900 0.004000
v 1.221800 -0.125800 0.011000
v 1.145400 -0.127200 -0.177000
v 1.164000 -0.130700 -0.169900
v 1.143600 -0.146400 -0.194100
v 1.165800 -0.142400 -0.182900
v 1.165300 -0.136300 -0.177700
v 1.167600 -0.167400 -0.204400
v 1.140600 -0.165500 -0.213700
v 1.161400 -0.174600 -0.216400
v 1.283200 -0.179900 0.227600
v 1.292200 -0.179400 0.128400
v 1.264800 -0.138300 0.233800
v 1.274900 -0.136600 0.128400
v 1.263600 -0.177800 0.329400
v 1.244100 -0.139100 0.328300
v 1.235500 -0.178000 0.403000
v 1.212300 -0.141000 0.407600
v 1.271900 -0.129200 0.128400
v 1.261400 -0.130900 0.234900
v 1.264900 -0.125300 0.128400
v 1.252700 -0.126300 0.240700
v 1.240400 -0.131600 0.328000
v 1.231700 -0.126700 0.327700
v 1.207700 -0.133500 0.408500
v 1.198900 -0.128200 0.409200
v 1.284900 -0.186700 0.227600
v 1.293800 -0.186100 0.128300
v 1.238000 -0.184100 0.403600
v 1.265900 -0.184100 0.329600
v 1.260500 -0.125300 0.128400
v 1.248200 -0.126300 0.240700
v 1.194400 -0.128200 0.409200
v 1.227100 -0.126600 0.327700
v 1.195800 -0.131200 0.422100
v 1.191300 -0.131100 0.422100
v 1.191700 -0.135400 0.429900
v 1.196200 -0.135400 0.429900
v 1.200700 -0.135000 0.423500
v 1.201300 -0.141200 0.429000
v 1.196800 -0.141600 0.435000
v 1.202200 -0.170300 0.453300
v 1.199500 -0.168000 0.456600
v 1.195900 -0.178500 0.468400
v 1.192800 -0.175400 0.469700
v 1.192400 -0.141600 0.435000
v 1.195000 -0.167900 0.456600
v 1.188400 -0.175300 0.469700
v 1.199300 -0.182800 0.467900
v 1.169400 -0.167400 0.456700
v 1.167500 -0.142400 0.435200
v 1.167000 -0.136300 0.430000
v 1.187400 -0.178500 0.480500
v 1.182900 -0.178500 0.480500
v 1.163300 -0.174600 0.468700
v 1.157300 -0.178000 0.480600
v 1.165700 -0.130700 0.422200
v 1.168700 -0.127700 0.409300
v 1.199300 -0.126200 0.327800
v 1.222500 -0.125800 0.241200
v 1.234700 -0.126200 0.128500
v 1.234600 -0.126200 0.123400
v 1.260400 -0.125300 0.123300
v 1.264800 -0.125300 0.123300
v 1.252000 -0.126300 0.011000
v 1.260800 -0.130900 0.016800
v 1.271800 -0.129200 0.123300
v 1.239300 -0.131600 -0.076200
v 1.230600 -0.126700 -0.075900
v 1.206200 -0.133500 -0.156500
v 1.197400 -0.128200 -0.157300
v 1.264200 -0.138300 0.017900
v 1.274800 -0.136600 0.123300
v 1.292100 -0.179400 0.123300
v 1.282700 -0.179900 0.024100
v 1.262500 -0.177800 -0.077800
v 1.243000 -0.139100 -0.076400
v 1.234000 -0.178000 -0.151200
v 1.210800 -0.141000 -0.155500
v 1.284400 -0.186700 0.024100
v 1.293700 -0.186100 0.123200
v 1.236500 -0.184100 -0.151700
v 1.264800 -0.184100 -0.077900
v 1.192900 -0.128200 -0.157300
v 1.226000 -0.126600 -0.075900
v 1.197400 -0.182800 -0.216000
v 1.194000 -0.178500 -0.216400
v 1.199600 -0.141200 -0.176900
v 1.200500 -0.170300 -0.201200
v 1.195100 -0.141600 -0.182900
v 1.194500 -0.135400 -0.177800
v 1.199000 -0.135000 -0.171400
v 1.197700 -0.168000 -0.204500
v 1.190900 -0.175400 -0.217700
v 1.194100 -0.131200 -0.170000
v 1.190700 -0.141600 -0.182900
v 1.190000 -0.135400 -0.177800
v 1.193200 -0.167900 -0.204500
v 1.186500 -0.175300 -0.217700
v 1.189600 -0.131100 -0.170000
v 1.247500 -0.126300 0.011000
v 1.181000 -0.178500 -0.228400
v 1.155400 -0.178000 -0.228400
v 1.185500 -0.178500 -0.228500
v 1.189100 -0.182500 -0.227900
v 1.191000 -0.182500 0.479900
v 1.231400 -0.113300 0.248700
v 1.230800 -0.110100 0.244500
v 1.199100 -0.046400 0.249000
v 1.210100 -0.114300 0.328800
v 1.175600 -0.045900 0.332900
v 1.178800 -0.117000 0.409200
v 1.139100 -0.045100 0.413900
v 1.143200 0.001900 0.329700
v 1.107100 0.003000 0.405400
v 1.167000 0.001000 0.252000
v 1.124400 0.019900 0.326500
v 1.089200 0.020700 0.398700
v 1.101200 0.037000 0.322200
v 1.066000 0.038400 0.389800
v 1.077000 0.048600 0.317200
v 1.045900 0.049300 0.377600
v 1.122500 0.036200 0.254300
v 1.146500 0.019100 0.253100
v 1.096000 0.048500 0.255700
v 1.037400 0.022700 0.466600
v 1.014500 0.040700 0.454000
v 0.965900 0.027300 0.533100
v 0.943300 0.043500 0.516300
v 0.997100 0.051300 0.438600
v 0.926000 0.054500 0.492700
v 0.985400 0.007000 0.543700
v 1.055000 0.004700 0.475500
v 1.012600 -0.042100 0.558600
v 1.085300 -0.043800 0.489300
v 1.040000 -0.118100 0.566500
v 1.121100 -0.118500 0.496500
v 1.044700 -0.130200 0.568000
v 1.126400 -0.130400 0.498100
v 1.052200 -0.146300 0.577900
v 1.138700 -0.145500 0.507400
v 1.173800 -0.127600 0.430200
v 1.180700 -0.143900 0.444700
v 1.141000 -0.148200 0.509100
v 1.182200 -0.146600 0.447000
v 1.181300 -0.150500 0.449900
v 1.142200 -0.152100 0.509500
v 1.176000 -0.166100 0.466900
v 1.054600 -0.153000 0.580200
v 1.060700 -0.175900 0.583200
v 1.150000 -0.176900 0.511700
v 1.053600 -0.149200 0.579700
v 1.166100 -0.174800 0.486800
v 1.177800 -0.057300 0.247900
v 1.209400 -0.113000 0.242000
v 1.207700 -0.041800 0.242300
v 1.251200 -0.123100 0.237100
v 1.172000 0.005400 0.245500
v 1.150400 -0.014400 0.250600
v 1.150500 0.026800 0.246900
v 1.132200 -0.000400 0.251500
v 1.124500 0.044600 0.248500
v 1.109800 0.012700 0.252600
v 1.095200 0.057700 0.250100
v 1.085300 0.021900 0.253900
v 1.064300 0.063900 0.251900
v 1.056600 0.027700 0.255500
v 0.919500 0.079000 0.259900
v 0.918900 0.044000 0.262900
v 0.721000 0.093300 0.270900
v 0.721400 0.059800 0.273100
v 0.497500 0.111000 0.283000
v 0.497000 0.079700 0.284200
v 0.219400 0.133800 0.296700
v 0.215400 0.101400 0.298600
v 1.219600 -0.041000 0.128800
v 1.263300 -0.123400 0.128700
v 1.186100 0.005700 0.128900
v 1.163600 0.027100 0.129000
v 1.136800 0.045300 0.129100
v 1.108100 0.059300 0.129200
v 1.077600 0.066300 0.129200
v 0.918800 0.083100 0.129800
v 0.721100 0.098800 0.130300
v 0.497200 0.118500 0.130900
v 0.257400 0.137000 0.131500
v 0.930500 -0.118900 0.624100
v 0.903900 -0.039600 0.615000
v 0.769200 -0.120600 0.694300
v 0.748300 -0.036000 0.684000
v 0.494900 -0.126200 0.794400
v 0.496500 -0.030300 0.780000
v 0.255700 -0.026000 0.857100
v 0.253900 -0.129400 0.872500
v 0.877200 0.009500 0.601200
v 0.497300 0.018300 0.759500
v 0.256500 0.021900 0.838200
v 0.721000 0.013100 0.672100
v 0.070300 0.024500 0.889300
v 0.069600 -0.022900 0.906700
v 0.068600 -0.088200 0.919600
v 0.494800 -0.135500 0.795900
v 0.772300 -0.132800 0.695800
v 0.494700 -0.139800 0.801600
v 0.776700 -0.143200 0.706500
v 0.934600 -0.131200 0.625500
v 0.940200 -0.145200 0.637100
v 0.941300 -0.148000 0.639400
v 0.494700 -0.142700 0.805400
v 0.253700 -0.140100 0.874500
v 0.253700 -0.145100 0.875700
v 0.494600 -0.146600 0.806600
v 0.067600 -0.144900 0.923600
v 0.777900 -0.146000 0.709400
v 0.778700 -0.149900 0.710400
v 0.782100 -0.172900 0.715700
v 0.942200 -0.151900 0.640200
v 0.947100 -0.174700 0.644600
v 0.494300 -0.169900 0.812900
v 0.067800 -0.131900 0.922700
v 0.253200 -0.167200 0.880300
v 0.067300 -0.166300 0.927000
v 0.821900 0.058600 0.542700
v 0.680400 0.066000 0.607400
v 0.833100 0.047100 0.571100
v 0.686500 0.051600 0.640000
v 0.498000 0.075700 0.677500
v 0.497800 0.058300 0.715600
v 0.257400 0.085800 0.753800
v 0.257000 0.064600 0.795600
v 0.076000 0.093000 0.801600
v 0.070900 0.068500 0.845800
v 0.497600 0.040300 0.740700
v 0.256700 0.045300 0.820100
v 0.703800 0.034300 0.659200
v 0.856600 0.030300 0.589200
v 0.070700 0.048500 0.870700
v 0.088700 0.105400 0.750100
v 0.257400 0.096900 0.707200
v 0.158200 0.120200 0.511600
v 0.257100 0.114500 0.499800
v 0.498000 0.084700 0.635700
v 0.497800 0.097700 0.466700
v 0.683700 0.073200 0.568500
v 0.709200 0.081500 0.430400
v 0.811100 0.064900 0.510900
v 0.909000 0.060500 0.463000
v 0.974700 0.058100 0.418700
v 0.915900 0.066600 0.390200
v 1.023700 0.055700 0.366600
v 1.051200 0.055400 0.309900
v 1.067200 0.055600 0.257300
v 0.919400 0.073000 0.265200
v 0.721900 0.088700 0.275400
v 0.497400 0.108700 0.286500
v 0.217500 0.130700 0.300900
v 1.142500 -0.165500 0.467000
v 1.145300 -0.146400 0.447300
v 1.147100 -0.127200 0.430200
v 1.134000 -0.174300 0.486900
v 1.123400 -0.176400 0.511800
v 1.152100 -0.116600 0.409200
v 1.230100 -0.110100 0.008300
v 1.230700 -0.113300 0.003900
v 1.198400 -0.046400 0.003900
v 1.209000 -0.114300 -0.076000
v 1.174500 -0.045900 -0.079900
v 1.177300 -0.117000 -0.156200
v 1.137600 -0.045100 -0.160700
v 1.142100 0.001900 -0.076400
v 1.105600 0.003000 -0.151900
v 1.166300 0.001000 0.001100
v 1.123300 0.019900 -0.073200
v 1.087700 0.020700 -0.145300
v 1.100100 0.037000 -0.068700
v 1.064500 0.038400 -0.136100
v 1.075900 0.048600 -0.063700
v 1.044600 0.049300 -0.123900
v 1.121800 0.036200 -0.001100
v 1.145800 0.019100 -0.000100
v 1.095300 0.048500 -0.002200
v 1.035500 0.022700 -0.213000
v 1.012700 0.040700 -0.200200
v 0.963600 0.027300 -0.279100
v 0.941200 0.043500 -0.262100
v 0.995400 0.051300 -0.184600
v 0.924000 0.054500 -0.238300
v 0.983100 0.007000 -0.289700
v 1.053100 0.004700 -0.221900
v 1.010300 -0.042100 -0.304700
v 1.083400 -0.043800 -0.235900
v 1.037600 -0.118100 -0.312900
v 1.119000 -0.118500 -0.243200
v 1.042300 -0.130200 -0.314400
v 1.124300 -0.130400 -0.244800
v 1.049700 -0.146300 -0.324200
v 1.136600 -0.145500 -0.254200
v 1.172100 -0.127600 -0.177000
v 1.179000 -0.143900 -0.191700
v 1.138900 -0.148200 -0.255900
v 1.180500 -0.146600 -0.193900
v 1.179600 -0.150500 -0.196800
v 1.140100 -0.152100 -0.256200
v 1.174100 -0.166100 -0.213800
v 1.052100 -0.153000 -0.326600
v 1.058200 -0.175900 -0.329500
v 1.147900 -0.176900 -0.258600
v 1.051100 -0.149200 -0.326000
v 1.164200 -0.174800 -0.233700
v 1.250600 -0.123100 0.015500
v 1.208700 -0.113000 0.010800
v 1.207000 -0.041800 0.010500
v 1.177100 -0.057300 0.005200
v 1.171300 0.005400 0.007500
v 1.149700 -0.014400 0.002500
v 1.149800 0.026800 0.006100
v 1.131500 -0.000400 0.001700
v 1.123800 0.044600 0.004800
v 1.109100 0.012700 0.000700
v 1.094500 0.057700 0.003300
v 1.084600 0.021900 -0.000400
v 1.063600 0.063900 0.001800
v 1.055900 0.027700 -0.001800
v 0.918800 0.079000 -0.005500
v 0.918200 0.044000 -0.008500
v 0.720300 0.093300 -0.015500
v 0.720600 0.059800 -0.017600
v 0.496600 0.111000 -0.026400
v 0.496100 0.079700 -0.027600
v 0.218500 0.133800 -0.038400
v 0.214500 0.101400 -0.040400
v 1.263200 -0.123400 0.123800
v 1.219500 -0.041000 0.123900
v 1.186100 0.005700 0.124000
v 1.163600 0.027100 0.124100
v 1.136800 0.045300 0.124200
v 1.108100 0.059300 0.124300
v 1.077600 0.066300 0.124300
v 0.918800 0.083100 0.124800
v 0.721100 0.098800 0.125300
v 0.497200 0.118500 0.125900
v 0.257400 0.137000 0.126600
v 0.901200 -0.039600 -0.360600
v 0.927800 -0.118900 -0.369900
v 0.766100 -0.120600 -0.439100
v 0.745200 -0.036000 -0.428700
v 0.491200 -0.126200 -0.537700
v 0.493000 -0.030300 -0.523300
v 0.251800 -0.026000 -0.599000
v 0.249800 -0.129400 -0.614400
v 0.874600 0.009500 -0.346600
v 0.493800 0.018300 -0.502900
v 0.252600 0.021900 -0.580100
v 0.718100 0.013100 -0.416600
v 0.066200 0.024500 -0.630300
v 0.065300 -0.022900 -0.647600
v 0.064300 -0.088200 -0.660600
v 0.491100 -0.135500 -0.539200
v 0.769200 -0.132800 -0.440600
v 0.491000 -0.139800 -0.545000
v 0.773600 -0.143200 -0.451300
v 0.931900 -0.131200 -0.371300
v 0.937400 -0.145200 -0.382800
v 0.938500 -0.148000 -0.385200
v 0.491000 -0.142700 -0.548700
v 0.249600 -0.140100 -0.616500
v 0.249600 -0.145100 -0.617700
v 0.490900 -0.146600 -0.549900
v 0.063300 -0.144900 -0.664500
v 0.774800 -0.146000 -0.454200
v 0.775500 -0.149900 -0.455100
v 0.778900 -0.172900 -0.460600
v 0.939400 -0.151900 -0.385900
v 0.944200 -0.174700 -0.390400
v 0.490600 -0.169900 -0.556200
v 0.063500 -0.131900 -0.663700
v 0.249100 -0.167200 -0.622100
v 0.063000 -0.166300 -0.667900
v 0.683700 0.051600 -0.384400
v 0.677700 0.066000 -0.351600
v 0.830600 0.047100 -0.316200
v 0.819600 0.058600 -0.287900
v 0.495000 0.075700 -0.420900
v 0.494600 0.058300 -0.458800
v 0.254000 0.085800 -0.495800
v 0.253300 0.064600 -0.537600
v 0.072300 0.093000 -0.542500
v 0.067000 0.068500 -0.586800
v 0.494300 0.040300 -0.484100
v 0.253000 0.045300 -0.561900
v 0.700900 0.034300 -0.403600
v 0.854100 0.030300 -0.334600
v 0.066600 0.048500 -0.611700
v 0.085300 0.105400 -0.491200
v 0.156100 0.120200 -0.252900
v 0.254300 0.096900 -0.449100
v 0.255000 0.114500 -0.241800
v 0.495300 0.084700 -0.379100
v 0.495900 0.097700 -0.210100
v 0.681300 0.073200 -0.312800
v 0.707500 0.081500 -0.175000
v 0.809000 0.064900 -0.255800
v 0.907100 0.060500 -0.208500
v 0.973100 0.058100 -0.164700
v 0.914400 0.066600 -0.135700
v 1.022400 0.055700 -0.112800
v 1.050200 0.055400 -0.056200
v 1.066500 0.055600 -0.003600
v 0.918700 0.073000 -0.010700
v 0.721100 0.088700 -0.019900
v 0.496500 0.108700 -0.029800
v 0.216600 0.130700 -0.042600
v 1.132100 -0.174300 -0.233600
v 1.121300 -0.176400 -0.258500
v 0.188300 -0.084700 -0.628400
v 0.183700 -0.084400 -0.629600
v 0.187000 -0.080400 -0.628300
v 0.188000 -0.105000 -0.631000
v 0.183400 -0.107400 -0.632600
v 0.186400 -0.109700 -0.632100
v 0.210100 -0.105700 -0.625100
v 0.213700 -0.110500 -0.624700
v 0.214300 -0.081100 -0.620900
v 0.210400 -0.085300 -0.622500
v 0.145600 -0.091900 -0.635700
v 0.145400 -0.102500 -0.637100
v 0.145600 -0.095700 -0.641800
v 0.145500 -0.103700 -0.642900
v 0.230800 -0.085900 -0.616800
v 0.226000 -0.085800 -0.618000
v 0.228800 -0.081500 -0.616700
v 0.230400 -0.106200 -0.619500
v 0.225700 -0.108100 -0.620900
v 0.228200 -0.110900 -0.620500
v 0.254000 -0.106900 -0.613100
v 0.256200 -0.111800 -0.613100
v 0.258800 -0.109000 -0.612000
v 0.259200 -0.086800 -0.609000
v 0.254300 -0.086700 -0.610400
v 0.256600 -0.082400 -0.609200
v 0.261500 -0.105700 0.869300
v 0.263500 -0.110400 0.869300
v 0.266000 -0.107600 0.868100
v 0.240400 -0.105600 0.875600
v 0.238200 -0.110300 0.876900
v 0.235900 -0.107500 0.877200
v 0.236200 -0.084500 0.874000
v 0.240600 -0.085300 0.872800
v 0.238600 -0.080900 0.872800
v 0.266400 -0.081000 0.864500
v 0.266300 -0.085400 0.865100
v 0.266200 -0.093500 0.866200
v 0.261600 -0.097600 0.868100
v 0.253100 -0.093500 0.870100
v 0.253000 -0.097600 0.870700
v 0.219500 -0.085200 0.879200
v 0.224100 -0.085000 0.877800
v 0.221100 -0.080900 0.878100
v 0.219300 -0.105500 0.882000
v 0.223800 -0.108000 0.880900
v 0.220700 -0.110200 0.882200
v 0.197400 -0.105500 0.888500
v 0.193600 -0.110100 0.890400
v 0.194000 -0.080800 0.886400
v 0.197700 -0.085100 0.885700
v 0.306600 -0.085500 0.852700
v 0.306600 -0.081200 0.852100
v 0.284200 -0.085400 0.859900
v 0.280300 -0.081100 0.860500
v 0.284100 -0.093600 0.861000
v 0.280100 -0.110500 0.864600
v 0.284100 -0.097700 0.861600
v 0.303700 -0.097800 0.855400
v 0.303700 -0.093700 0.854800
v 0.284000 -0.105800 0.862700
v 0.306400 -0.110600 0.856100
v 0.306400 -0.105800 0.855500
v 0.224900 -0.083900 0.874200
v 0.220900 -0.079300 0.874700
v 0.224600 -0.108500 0.877500
v 0.220500 -0.112000 0.879200
v 0.191500 -0.079200 0.883700
v 0.191000 -0.111900 0.888200
v 0.306500 -0.079300 0.848100
v 0.277000 -0.079200 0.857600
v 0.177500 -0.085100 0.891500
v 0.182200 -0.085100 0.890100
v 0.179700 -0.080800 0.890300
v 0.177300 -0.105400 0.894300
v 0.181800 -0.107400 0.893200
v 0.179300 -0.110100 0.894300
v 0.153700 -0.105300 0.900900
v 0.151300 -0.110000 0.902100
v 0.148800 -0.107300 0.902500
v 0.149100 -0.084900 0.899400
v 0.154100 -0.085000 0.898100
v 0.151900 -0.080700 0.898100
v 0.182700 -0.107700 0.889600
v 0.183100 -0.083100 0.886200
v 0.179100 -0.111800 0.891100
v 0.149700 -0.111700 0.899400
v 0.146300 -0.107600 0.899700
v 0.146600 -0.083000 0.896400
v 0.150200 -0.078900 0.894800
v 0.179600 -0.079000 0.886600
v 0.174900 -0.104100 0.891200
v 0.154300 -0.104000 0.897100
v 0.132500 -0.084900 0.904500
v 0.137100 -0.083100 0.902900
v 0.133900 -0.080600 0.903500
v 0.132200 -0.105100 0.907300
v 0.136700 -0.106200 0.906000
v 0.133600 -0.110000 0.907500
v 0.110700 -0.105100 0.913600
v 0.107000 -0.109900 0.915300
v 0.107400 -0.080500 0.911400
v 0.111000 -0.084900 0.910800
v 0.137500 -0.082900 0.898700
v 0.133500 -0.078800 0.899200
v 0.137200 -0.107600 0.902000
v 0.133200 -0.111700 0.903700
v 0.104200 -0.111600 0.912200
v 0.104600 -0.078700 0.907700
v 0.129900 -0.103900 0.903700
v 0.111200 -0.103900 0.909100
v 1.275100 -0.174000 -0.020200
v 1.276600 -0.179000 -0.022800
v 1.274600 -0.175700 -0.025400
v 1.280200 -0.174100 0.003900
v 1.282800 -0.179200 0.005900
v 1.282000 -0.175800 0.008800
v 1.270500 -0.165800 -0.024800
v 1.271600 -0.165400 -0.019600
v 1.268700 -0.161300 -0.024400
v 1.271900 -0.161300 -0.009600
v 1.273600 -0.165400 -0.009800
v 1.277900 -0.165900 0.009500
v 1.276200 -0.161600 0.009800
v 1.271900 -0.153600 0.005200
v 1.272300 -0.151800 0.010300
v 1.270400 -0.148400 0.007800
v 1.263500 -0.148300 -0.023600
v 1.265600 -0.153400 -0.023900
v 1.284200 -0.151900 0.113200
v 1.282400 -0.150600 0.108700
v 1.281900 -0.147300 0.112100
v 1.281800 -0.147500 0.142800
v 1.284400 -0.152100 0.138900
v 1.286400 -0.160400 0.108600
v 1.288200 -0.164700 0.108500
v 1.292900 -0.172800 0.112800
v 1.292400 -0.174700 0.108300
v 1.294600 -0.177900 0.110900
v 1.294400 -0.178200 0.142200
v 1.293000 -0.172900 0.138400
v 1.287000 -0.160500 0.142600
v 1.288800 -0.164900 0.142600
v 1.214700 -0.150400 -0.168300
v 1.213100 -0.146200 -0.167700
v 1.225900 -0.150300 -0.144100
v 1.226400 -0.146000 -0.139400
v 1.229600 -0.159700 -0.145300
v 1.231600 -0.159700 -0.141100
v 1.233300 -0.164200 -0.141600
v 1.231600 -0.164500 -0.145900
v 1.221700 -0.164900 -0.167200
v 1.219800 -0.159800 -0.166600
v 1.239800 -0.177600 -0.143500
v 1.235700 -0.173100 -0.147000
v 1.225400 -0.178300 -0.172000
v 1.223600 -0.173700 -0.171400
v 1.256600 -0.160800 -0.078500
v 1.257600 -0.165400 -0.079000
v 1.274900 -0.152700 0.235200
v 1.275300 -0.151200 0.229800
v 1.273500 -0.147900 0.232800
v 1.270200 -0.153300 0.262000
v 1.267900 -0.148500 0.264600
v 1.268600 -0.152000 0.267500
v 1.279000 -0.161000 0.229800
v 1.282900 -0.173800 0.235100
v 1.280600 -0.165400 0.229800
v 1.284500 -0.175600 0.229700
v 1.285200 -0.179000 0.232700
v 1.278100 -0.174500 0.261900
v 1.274000 -0.166300 0.267500
v 1.272300 -0.161900 0.267500
v 1.279600 -0.179600 0.264500
v 1.277800 -0.176400 0.267500
v 1.233300 -0.152700 0.383000
v 1.234700 -0.151500 0.377900
v 1.231900 -0.148200 0.380700
v 1.223600 -0.152400 0.406500
v 1.219700 -0.147800 0.409700
v 1.233100 -0.172400 0.410100
v 1.233800 -0.177300 0.415000
v 1.245900 -0.177700 0.386000
v 1.243000 -0.172800 0.386700
v 1.245800 -0.174600 0.382100
v 1.239100 -0.160800 0.379600
v 1.241200 -0.165000 0.380400
v 1.258100 -0.161300 0.330100
v 1.259200 -0.165900 0.330400
v 0.621600 -0.082500 0.744100
v 0.625400 -0.082600 0.777300
v 0.621400 -0.091600 0.744100
v 0.625300 -0.091700 0.777300
v 0.616900 -0.082400 0.795500
v 0.616800 -0.091500 0.795500
v 0.526500 -0.080900 0.828200
v 0.526400 -0.090000 0.828200
v 0.611000 -0.091400 0.789400
v 0.523300 -0.090000 0.820500
v 0.523500 -0.080800 0.820500
v 0.611200 -0.082300 0.789400
v 0.616800 -0.091500 0.776900
v 0.614600 -0.091500 0.748000
v 0.617000 -0.082400 0.776900
v 0.614800 -0.082400 0.748000
v 0.624200 -0.089600 -0.519900
v 0.624400 -0.080500 -0.519900
v 0.620600 -0.089500 -0.486700
v 0.620800 -0.080400 -0.486700
v 0.615700 -0.080300 -0.538100
v 0.615500 -0.089400 -0.538100
v 0.525200 -0.078800 -0.570400
v 0.525000 -0.087900 -0.570400
v 0.609900 -0.089300 -0.531900
v 0.522100 -0.087900 -0.562500
v 0.522200 -0.078700 -0.562500
v 0.610000 -0.080200 -0.531900
v 0.615800 -0.089400 -0.519500
v 0.613700 -0.089400 -0.490600
v 0.615900 -0.080300 -0.519500
v 0.613800 -0.080300 -0.490600
v 1.218900 -0.034900 0.139000
v 1.266000 -0.124700 0.138200
v 1.231100 -0.034100 0.126200
v 1.278400 -0.125000 0.126100
v 1.197600 0.012500 0.126300
v 1.183200 0.012200 0.139400
v 1.175100 0.034000 0.126400
v 1.161700 0.033600 0.139600
v 1.148400 0.052100 0.126400
v 1.135800 0.051500 0.139900
v 1.106400 0.064500 0.140100
v 1.119600 0.066200 0.126500
v 1.075600 0.070700 0.140300
v 1.089100 0.073100 0.126600
v 0.930400 0.089800 0.127000
v 0.930800 0.085700 0.141600
v 0.732800 0.107500 0.127600
v 0.732400 0.102000 0.143400
v 0.509100 0.128400 0.128200
v 0.508900 0.121000 0.145200
v 0.249800 0.144300 0.147400
v 0.251900 0.147200 0.128900
v 1.278400 -0.125000 0.125600
v 1.265900 -0.124700 0.113400
v 1.231100 -0.034100 0.125700
v 1.218800 -0.034900 0.113100
v 1.197600 0.012500 0.125800
v 1.183100 0.012200 0.112700
v 1.175100 0.034000 0.125900
v 1.161600 0.033600 0.112700
v 1.148400 0.052100 0.125900
v 1.135700 0.051500 0.112600
v 1.106300 0.064500 0.112500
v 1.119600 0.066200 0.126000
v 1.075500 0.070700 0.112400
v 1.089100 0.073100 0.126100
v 0.930400 0.089800 0.126500
v 0.930700 0.085700 0.111900
v 0.732800 0.107500 0.127100
v 0.732300 0.102000 0.111300
v 0.509100 0.128400 0.127700
v 0.508800 0.121000 0.110600
v 0.249700 0.144300 0.109900
v 0.251900 0.147200 0.128400
v 1.224300 -0.113200 0.113000
v 1.188900 -0.050400 0.112500
v 1.161500 -0.007500 0.112300
v 1.237200 -0.127400 0.113000
v 1.143300 0.006400 0.112300
v 1.120900 0.019600 0.112100
v 1.096500 0.028800 0.112100
v 1.067700 0.034600 0.112000
v 0.929900 0.050700 0.111600
v 0.732400 0.068500 0.111100
v 0.508100 0.089600 0.110500
v 0.243200 0.111800 0.109700
vn -0.2102 0.8374 0.5045
vn -0.2103 0.8349 0.5086
vn -0.2107 0.8208 0.5309
vn -0.2107 0.8176 0.5358
vn -0.1740 0.7779 0.6038
vn -0.1731 0.7664 0.6186
vn 0.2107 0.8176 0.5358
vn 0.2103 0.8349 0.5086
vn 0.2107 0.8208 0.5309
vn 0.2102 0.8374 0.5045
vn 0.1740 0.7779 0.6038
vn 0.1731 0.7664 0.6186
vn 0.4975 0.7990 0.3377
vn 0.4282 0.8041 0.4124
vn 0.4162 0.8041 0.4245
vn 0.3172 0.7961 0.5153
vn 0.7399 0.6224 0.2553
vn 0.7371 0.6247 0.2578
vn 0.7341 0.6271 0.2604
vn 0.7274 0.6324 0.2663
vn 0.7123 0.6482 0.2691
vn 0.6953 0.6593 0.2861
vn 0.5965 0.7596 0.2594
vn 0.5966 0.7595 0.2594
vn 0.5965 0.7595 0.2594
vn -0.1313 0.3167 0.9394
vn -0.0469 0.3058 0.9509
vn -0.1439 0.3894 0.9098
vn -0.0497 0.3741 0.9261
vn -0.2617 0.3773 0.8883
vn -0.2736 0.4422 0.8541
vn -0.4033 0.4004 0.8228
vn -0.3869 0.4557 0.8017
vn -0.0432 0.6597 0.7503
vn -0.1285 0.6489 0.7500
vn -0.0195 0.9662 0.2571
vn -0.0639 0.9560 0.2862
vn -0.2361 0.6716 0.7023
vn -0.1041 0.9578 0.2679
vn -0.3383 0.6552 0.6754
vn -0.1988 0.9452 0.2589
vn -0.0981 0.6724 0.7336
vn -0.0365 0.6666 0.7445
vn -0.2657 0.7812 0.5649
vn -0.1841 0.7158 0.6736
vn -0.0033 0.9999 -0.0146
vn -0.0064 0.9999 0.0148
vn -0.1316 0.9912 0.0164
vn -0.0171 0.9997 0.0166
vn -0.3673 0.8973 0.2447
vn -0.3715 0.9284 0.0059
vn -0.6411 0.7673 -0.0145
vn -0.6112 0.7231 0.3219
vn -0.4181 0.6326 0.6519
vn -0.4905 0.4651 0.7369
vn -0.7111 0.5972 0.3711
vn -0.4821 0.3425 0.8064
vn -0.6223 0.5718 0.5346
vn -0.5135 0.4747 0.7148
vn -0.5361 0.7432 0.4003
vn -0.7763 0.6304 -0.0068
vn -0.6533 0.7570 0.0123
vn -0.4001 0.9164 0.0140
vn -0.2830 0.8416 0.4599
vn -0.6415 0.7671 0.0032
vn -0.7663 0.6421 -0.0201
vn -0.6690 0.7432 -0.0097
vn -0.4212 0.8149 0.3983
vn -0.1914 0.9814 0.0162
vn -0.3786 0.9255 0.0108
vn -0.1569 0.9875 0.0161
vn -0.4266 0.9043 0.0150
vn -0.1526 0.9882 0.0164
vn -0.0188 0.9997 0.0166
vn -0.0043 0.9999 0.0166
vn -0.0018 0.9996 -0.0289
vn 0.0017 0.9996 -0.0289
vn 0.0033 0.9999 -0.0146
vn 0.0195 0.9662 0.2571
vn 0.0639 0.9560 0.2862
vn 0.1285 0.6489 0.7499
vn 0.0432 0.6597 0.7503
vn 0.2361 0.6716 0.7023
vn 0.1041 0.9578 0.2679
vn 0.3383 0.6552 0.6755
vn 0.1988 0.9452 0.2589
vn 0.1439 0.3893 0.9098
vn 0.0497 0.3741 0.9261
vn 0.0469 0.3058 0.9509
vn 0.1313 0.3166 0.9394
vn 0.2617 0.3773 0.8883
vn 0.2736 0.4422 0.8542
vn 0.4033 0.4005 0.8228
vn 0.3869 0.4557 0.8017
vn 0.0981 0.6725 0.7336
vn 0.0365 0.6666 0.7445
vn 0.2657 0.7812 0.5649
vn 0.1841 0.7158 0.6736
vn 0.1316 0.9912 0.0164
vn 0.0171 0.9997 0.0166
vn 0.2830 0.8416 0.4599
vn 0.5135 0.4747 0.7148
vn 0.4905 0.4652 0.7369
vn 0.4820 0.3425 0.8064
vn 0.7111 0.5972 0.3711
vn 0.6112 0.7231 0.3219
vn 0.4181 0.6327 0.6519
vn 0.6223 0.5719 0.5345
vn 0.5414 0.7398 0.3996
vn 0.3674 0.8973 0.2447
vn 0.7762 0.6304 -0.0068
vn 0.6411 0.7673 -0.0144
vn 0.6533 0.7570 0.0123
vn 0.4001 0.9164 0.0140
vn 0.3715 0.9284 0.0059
vn 0.7663 0.6421 -0.0201
vn 0.6690 0.7432 -0.0097
vn 0.6415 0.7671 0.0032
vn 0.4267 0.9043 0.0150
vn 0.4266 0.9043 0.0150
vn 0.1526 0.9882 0.0164
vn 0.0188 0.9997 0.0166
vn 0.0042 0.9999 0.0166
vn 0.0065 0.9999 0.0148
vn 0.3786 0.9255 0.0108
vn 0.1914 0.9814 0.0162
vn 0.1584 0.9873 0.0154
vn 0.4212 0.8148 0.3983
vn 0.3041 0.8527 0.4248
vn -0.3041 0.8527 0.4248
vn -0.2412 0.4202 0.8748
vn -0.2388 0.4205 0.8753
vn -0.2392 0.4730 0.8480
vn -0.2933 0.4161 0.8607
vn -0.3018 0.4836 0.8216
vn -0.4378 0.4341 0.7873
vn -0.4433 0.4795 0.7573
vn -0.2758 0.6379 0.7190
vn -0.3949 0.6405 0.6587
vn -0.2213 0.6257 0.7480
vn -0.2339 0.7625 0.6032
vn -0.3327 0.7669 0.5488
vn -0.1910 0.8549 0.4823
vn -0.2679 0.8594 0.4355
vn -0.1289 0.9386 0.3201
vn -0.1748 0.9392 0.2956
vn -0.1531 0.8433 0.5151
vn -0.1865 0.7586 0.6243
vn -0.1062 0.9306 0.3504
vn -0.4159 0.7703 0.4834
vn -0.3275 0.8666 0.3765
vn -0.5125 0.7744 0.3709
vn -0.3669 0.8931 0.2602
vn -0.2124 0.9454 0.2473
vn -0.2188 0.9615 0.1660
vn -0.6471 0.5970 0.4742
vn -0.5075 0.6363 0.5810
vn -0.7517 0.3879 0.5334
vn -0.5957 0.4571 0.6605
vn -0.7922 0.2944 0.5345
vn -0.6268 0.3838 0.6781
vn -0.7322 0.4675 0.4953
vn -0.5701 0.5631 0.5983
vn -0.6625 0.6092 0.4358
vn -0.4932 0.7079 0.5056
vn -0.4608 0.5979 0.6559
vn -0.4353 0.6606 0.6117
vn -0.5986 0.5005 0.6255
vn -0.4836 0.5365 0.6916
vn -0.5476 0.2467 0.7995
vn -0.6562 0.2827 0.6996
vn -0.5370 0.3013 0.7879
vn -0.8115 0.2545 0.5261
vn -0.8075 0.2479 0.5352
vn -0.6498 0.2824 0.7057
vn -0.7571 0.4364 0.4861
vn -0.5369 0.3036 0.7871
vn -0.9855 0.0269 0.1678
vn -0.9919 0.0137 0.1262
vn -0.9876 0.0234 0.1553
vn -0.9930 0.0210 0.1163
vn -0.9853 0.0683 0.1565
vn -0.9860 0.0688 0.1518
vn -0.9885 0.0782 0.1297
vn -0.9889 0.0850 0.1217
vn -0.9906 0.0843 0.1077
vn -0.9917 0.0841 0.0972
vn -0.9926 0.0823 0.0894
vn -0.9935 0.0834 0.0769
vn -0.9940 0.0819 0.0730
vn -0.9945 0.0834 0.0637
vn -0.9946 0.0830 0.0626
vn -0.9956 0.0721 0.0598
vn -0.9949 0.0825 0.0586
vn -0.9954 0.0788 0.0539
vn -0.9965 0.0637 0.0541
vn -0.9981 0.0372 0.0490
vn -0.9981 0.0364 0.0488
vn -0.9974 0.0500 0.0511
vn -0.9974 0.0510 0.0512
vn -0.0993 0.5335 0.8400
vn -0.1001 0.4646 0.8798
vn -0.0483 0.5251 0.8497
vn -0.0496 0.4675 0.8826
vn -0.0459 0.6555 0.7538
vn -0.0922 0.6583 0.7471
vn -0.0390 0.7751 0.6306
vn -0.0744 0.7707 0.6328
vn -0.0317 0.8638 0.5028
vn -0.0571 0.8738 0.4829
vn -0.0431 0.9538 0.2974
vn -0.0264 0.9421 0.3344
vn -0.0344 0.9882 0.1495
vn -0.0193 0.9859 0.1662
vn -0.0160 0.9956 0.0923
vn -0.0337 0.9953 0.0908
vn -0.0194 0.9964 0.0826
vn -0.0421 0.9959 0.0799
vn -0.0230 0.9963 0.0824
vn -0.0497 0.9953 0.0828
vn -0.0419 0.9960 0.0792
vn -0.0199 0.9969 0.0766
vn -0.8807 0.2377 0.4097
vn -0.8490 0.3392 0.4052
vn -0.9133 0.1997 0.3549
vn -0.8839 0.2983 0.3602
vn -0.9386 0.1375 0.3163
vn -0.9149 0.2487 0.3180
vn -0.9306 0.2422 0.2743
vn -0.9501 0.1479 0.2746
vn -0.7398 0.5659 0.3640
vn -0.8189 0.4915 0.2964
vn -0.8458 0.4693 0.2537
vn -0.7790 0.5324 0.3312
vn -0.8608 0.4524 0.2331
vn -0.9362 0.2503 0.2467
vn -0.9597 0.1208 0.2538
vn -0.8257 0.4954 0.2699
vn -0.8114 0.4949 0.3111
vn -0.5953 0.7810 0.1888
vn -0.6325 0.7362 0.2409
vn -0.7986 0.4721 0.3733
vn -0.6733 0.6680 0.3170
vn -0.7939 0.4790 0.3744
vn -0.7992 0.5474 0.2483
vn -0.9458 0.1959 0.2591
vn -0.9468 0.2010 0.2514
vn -0.9252 0.2541 0.2820
vn -0.9636 0.1103 0.2436
vn -0.7957 0.5251 0.3020
vn -0.9008 0.2706 0.3396
vn -0.9030 0.2603 0.3419
vn -0.8725 0.2629 0.4118
vn -0.8728 0.2551 0.4161
vn -0.9282 0.2455 0.2796
vn -0.9656 0.0634 0.2522
vn -0.9496 0.1880 0.2510
vn -0.9610 0.1452 0.2354
vn -0.2347 0.9596 0.1550
vn -0.2849 0.9445 0.1638
vn -0.3980 0.8917 0.2157
vn -0.4532 0.8642 0.2187
vn -0.3166 0.9363 0.1520
vn -0.5006 0.8406 0.2068
vn -0.3492 0.9270 0.1367
vn -0.5400 0.8224 0.1792
vn -0.4110 0.9018 0.1339
vn -0.5732 0.8023 0.1667
vn -0.6621 0.7051 0.2538
vn -0.7003 0.6802 0.2166
vn -0.6117 0.7422 0.2737
vn -0.5689 0.7708 0.2869
vn -0.7154 0.6692 0.2008
vn -0.2008 0.9751 0.0940
vn -0.1603 0.9828 0.0916
vn -0.0792 0.9946 0.0672
vn -0.0757 0.9945 0.0726
vn -0.1458 0.9840 0.1027
vn -0.0703 0.9940 0.0832
vn -0.1365 0.9841 0.1137
vn -0.0698 0.9935 0.0895
vn -0.1219 0.9866 0.1086
vn -0.1160 0.9879 0.1034
vn -0.1098 0.9842 0.1388
vn -0.0708 0.9928 0.0965
vn -0.0915 0.9814 0.1686
vn -0.0706 0.9821 0.1745
vn -0.0614 0.9796 0.1914
vn -0.0534 0.9936 0.0995
vn -0.0549 0.9948 0.0862
vn -0.0616 0.9946 0.0839
vn -0.0669 0.9948 0.0770
vn 0.5481 -0.8363 -0.0139
vn 0.7299 -0.6835 -0.0122
vn 0.5935 -0.8046 -0.0207
vn 0.7511 -0.6599 -0.0199
vn 0.7929 -0.6092 -0.0086
vn 0.7677 -0.6407 -0.0083
vn 0.6302 -0.7764 -0.0106
vn 0.6189 -0.7853 -0.0130
vn 0.3123 -0.9498 -0.0157
vn 0.2175 -0.9759 -0.0162
vn 0.0926 -0.9956 -0.0165
vn 0.2959 -0.9551 -0.0158
vn 0.2194 -0.9755 -0.0162
vn 0.2388 0.4206 0.8753
vn 0.2412 0.4202 0.8748
vn 0.2392 0.4730 0.8480
vn 0.2933 0.4161 0.8607
vn 0.3018 0.4836 0.8216
vn 0.4378 0.4341 0.7873
vn 0.4433 0.4796 0.7573
vn 0.2758 0.6380 0.7190
vn 0.3949 0.6405 0.6587
vn 0.2213 0.6257 0.7480
vn 0.2339 0.7626 0.6032
vn 0.3327 0.7670 0.5487
vn 0.1910 0.8549 0.4823
vn 0.2679 0.8594 0.4355
vn 0.1289 0.9386 0.3201
vn 0.1748 0.9392 0.2956
vn 0.1531 0.8433 0.5151
vn 0.1865 0.7586 0.6243
vn 0.1062 0.9306 0.3504
vn 0.4159 0.7703 0.4834
vn 0.3275 0.8666 0.3765
vn 0.5125 0.7744 0.3709
vn 0.3669 0.8931 0.2602
vn 0.2124 0.9454 0.2473
vn 0.2188 0.9615 0.1660
vn 0.6471 0.5970 0.4742
vn 0.5075 0.6362 0.5811
vn 0.7517 0.3878 0.5334
vn 0.5957 0.4571 0.6605
vn 0.7922 0.2945 0.5345
vn 0.6268 0.3838 0.6781
vn 0.7323 0.4674 0.4953
vn 0.5701 0.5632 0.5982
vn 0.6626 0.6092 0.4358
vn 0.4932 0.7079 0.5056
vn 0.4608 0.5979 0.6559
vn 0.4353 0.6606 0.6117
vn 0.5986 0.5005 0.6254
vn 0.4836 0.5365 0.6916
vn 0.5476 0.2467 0.7995
vn 0.6562 0.2826 0.6996
vn 0.5370 0.3013 0.7879
vn 0.8114 0.2545 0.5261
vn 0.8075 0.2479 0.5352
vn 0.6498 0.2824 0.7057
vn 0.7571 0.4364 0.4862
vn 0.5369 0.3036 0.7871
vn 0.9924 0.0323 0.1190
vn 0.9916 0.0212 0.1278
vn 0.9876 0.0234 0.1553
vn 0.9855 0.0269 0.1678
vn 0.9853 0.0683 0.1565
vn 0.9860 0.0689 0.1518
vn 0.9833 0.1175 0.1387
vn 0.9889 0.0850 0.1217
vn 0.9906 0.0843 0.1077
vn 0.9917 0.0841 0.0972
vn 0.9926 0.0823 0.0894
vn 0.9935 0.0834 0.0769
vn 0.9940 0.0819 0.0730
vn 0.9945 0.0834 0.0637
vn 0.9946 0.0830 0.0626
vn 0.9948 0.0835 0.0588
vn 0.9949 0.0825 0.0586
vn 0.9963 0.0660 0.0548
vn 0.9965 0.0637 0.0541
vn 0.9981 0.0372 0.0490
vn 0.9981 0.0364 0.0488
vn 0.9974 0.0499 0.0510
vn 0.9974 0.0511 0.0512
vn 0.9974 0.0501 0.0510
vn 0.9981 0.0365 0.0488
vn 0.0496 0.4675 0.8826
vn 0.1001 0.4647 0.8798
vn 0.0483 0.5250 0.8497
vn 0.0993 0.5335 0.8400
vn 0.0459 0.6555 0.7538
vn 0.0922 0.6583 0.7471
vn 0.0390 0.7750 0.6307
vn 0.0744 0.7707 0.6328
vn 0.0317 0.8638 0.5028
vn 0.0571 0.8738 0.4829
vn 0.0431 0.9538 0.2974
vn 0.0264 0.9421 0.3344
vn 0.0344 0.9882 0.1495
vn 0.0193 0.9859 0.1662
vn 0.0160 0.9956 0.0923
vn 0.0337 0.9953 0.0908
vn 0.0194 0.9964 0.0826
vn 0.0421 0.9959 0.0799
vn 0.0230 0.9963 0.0824
vn 0.0497 0.9953 0.0828
vn 0.0419 0.9960 0.0792
vn 0.0199 0.9969 0.0766
vn 0.8490 0.3392 0.4052
vn 0.8807 0.2377 0.4097
vn 0.9133 0.1998 0.3549
vn 0.8839 0.2984 0.3602
vn 0.9386 0.1376 0.3163
vn 0.9149 0.2486 0.3180
vn 0.9306 0.2423 0.2743
vn 0.9501 0.1478 0.2746
vn 0.7398 0.5659 0.3640
vn 0.8189 0.4915 0.2963
vn 0.8458 0.4693 0.2537
vn 0.7791 0.5323 0.3312
vn 0.8608 0.4524 0.2331
vn 0.9362 0.2503 0.2467
vn 0.9597 0.1208 0.2538
vn 0.8257 0.4953 0.2699
vn 0.8114 0.4949 0.3111
vn 0.5953 0.7810 0.1888
vn 0.6325 0.7362 0.2409
vn 0.7986 0.4722 0.3733
vn 0.6733 0.6680 0.3169
vn 0.7939 0.4791 0.3744
vn 0.7992 0.5474 0.2483
vn 0.9458 0.1959 0.2591
vn 0.9468 0.2011 0.2514
vn 0.9251 0.2540 0.2821
vn 0.9636 0.1103 0.2436
vn 0.7957 0.5250 0.3020
vn 0.9008 0.2708 0.3395
vn 0.9030 0.2603 0.3419
vn 0.8725 0.2630 0.4118
vn 0.8728 0.2551 0.4161
vn 0.9282 0.2455 0.2796
vn 0.9656 0.0634 0.2522
vn 0.9496 0.1880 0.2510
vn 0.9610 0.1452 0.2354
vn 0.4531 0.8642 0.2187
vn 0.2849 0.9445 0.1638
vn 0.3980 0.8917 0.2157
vn 0.2347 0.9596 0.1550
vn 0.3166 0.9363 0.1520
vn 0.5006 0.8406 0.2068
vn 0.3492 0.9270 0.1367
vn 0.5400 0.8224 0.1792
vn 0.4110 0.9018 0.1339
vn 0.5732 0.8023 0.1667
vn 0.6621 0.7051 0.2539
vn 0.7003 0.6802 0.2167
vn 0.6117 0.7423 0.2737
vn 0.5688 0.7708 0.2869
vn 0.7154 0.6692 0.2008
vn 0.2008 0.9751 0.0940
vn 0.0792 0.9946 0.0672
vn 0.1603 0.9828 0.0916
vn 0.0757 0.9945 0.0726
vn 0.1458 0.9840 0.1027
vn 0.0703 0.9941 0.0832
vn 0.1365 0.9841 0.1137
vn 0.0698 0.9935 0.0895
vn 0.1219 0.9866 0.1086
vn 0.1160 0.9879 0.1034
vn 0.1098 0.9842 0.1388
vn 0.0707 0.9928 0.0965
vn 0.0915 0.9814 0.1686
vn 0.0706 0.9821 0.1745
vn 0.0614 0.9796 0.1914
vn 0.0534 0.9936 0.0995
vn 0.0549 0.9948 0.0862
vn 0.0616 0.9946 0.0839
vn 0.0669 0.9948 0.0770
vn -0.7511 -0.6599 -0.0199
vn -0.7299 -0.6834 -0.0122
vn -0.5935 -0.8046 -0.0207
vn -0.5481 -0.8363 -0.0139
vn -0.7930 -0.6092 -0.0086
vn -0.7677 -0.6407 -0.0083
vn -0.6302 -0.7764 -0.0106
vn -0.6189 -0.7853 -0.0130
vn -0.3123 -0.9499 -0.0157
vn -0.2175 -0.9759 -0.0162
vn -0.0926 -0.9956 -0.0165
vn -0.2959 -0.9551 -0.0158
vn -0.2194 -0.9755 -0.0162
vn 0.0043 0.9999 0.0166
vn 0.0496 0.4674 0.8826
vn 0.9924 0.0322 0.1189
vn 0.9909 0.0560 0.1224
vn 0.9909 0.0561 0.1224
vn 0.9909 0.0563 0.1224
vn 0.9909 0.0562 0.1224
vn 0.9909 0.0562 0.1225
vn -0.0372 -0.0200 0.9991
vn -0.0445 -0.0179 0.9989
vn -0.0384 -0.0196 0.9991
vn -0.0460 -0.0173 0.9988
vn 0.9909 0.0561 0.1223
vn -0.9894 0.0587 0.1330
vn -0.9894 0.0587 0.1329
vn -0.9894 0.0586 0.1329
vn -0.9894 0.0587 0.1331
vn -0.9894 0.0588 0.1329
vn -0.9894 0.0589 0.1330
vn -0.9894 0.0588 0.1330
vn -0.9885 0.0589 0.1394
vn -0.9885 0.0588 0.1394
vn -0.9885 0.0587 0.1393
vn -0.9885 0.0588 0.1393
vn -0.9885 0.0587 0.1394
vn -0.9885 0.0589 0.1395
vn -0.9885 0.0587 0.1395
vn -0.5880 0.3298 0.7386
vn -0.6767 0.6527 0.3408
vn -0.5295 0.2114 0.8216
vn -0.6065 0.6250 0.4915
vn -0.5170 -0.3561 0.7784
vn -0.5330 -0.3209 0.7829
vn -0.7045 -0.6011 0.3774
vn -0.7436 -0.5988 0.2974
vn -0.7180 0.6890 0.0988
vn -0.7180 0.6890 0.0987
vn -0.6767 0.6527 0.3407
vn -0.7871 -0.6081 0.1034
vn -0.7169 0.6895 0.1034
vn -0.7169 0.6894 0.1034
vn -0.9907 0.0586 0.1227
vn -0.9907 0.0586 0.1226
vn -0.9907 0.0587 0.1228
vn -0.9907 0.0585 0.1227
vn -0.9907 0.0586 0.1228
vn -0.9907 0.0587 0.1227
vn -0.4843 -0.2700 0.8322
vn -0.6712 0.3212 0.6681
vn -0.4727 -0.3064 0.8263
vn -0.5258 0.1484 0.8375
vn -0.6666 -0.5977 0.4454
vn -0.7112 -0.6130 0.3440
vn -0.8450 -0.5286 -0.0812
vn -0.8646 -0.4733 -0.1688
vn -0.9043 -0.1625 -0.3948
vn -0.9039 -0.1109 -0.4131
vn -0.9157 0.1539 -0.3712
vn -0.9105 0.2321 -0.3422
vn -0.8254 0.5571 -0.0913
vn -0.8274 0.5420 -0.1470
vn -0.6166 0.5894 0.5219
vn -0.7014 0.6209 0.3500
vn -0.6079 0.7902 0.0781
vn -0.6080 0.7901 0.0781
vn -0.9899 0.0587 0.1292
vn -0.9899 0.0587 0.1293
vn -0.9899 0.0586 0.1293
vn -0.9899 0.0588 0.1293
vn -0.2581 0.3631 0.8953
vn -0.5956 0.7443 0.3022
vn -0.2894 0.3636 0.8855
vn -0.5800 0.7164 0.3878
vn -0.3685 -0.1916 0.9097
vn -0.4265 -0.3401 0.8381
vn -0.5681 -0.6699 0.4780
vn -0.6171 -0.7132 0.3325
vn -0.6913 -0.7173 0.0875
vn -0.6693 0.7375 0.0900
vn -0.5500 0.8318 0.0748
vn -0.5502 0.8317 0.0748
vn 0.4042 0.3541 0.8433
vn 0.4002 0.3509 0.8466
vn 0.4041 0.3538 0.8435
vn 0.3973 0.3519 0.8475
vn 0.3984 0.3512 0.8473
vn 0.3960 0.3522 0.8480
vn 0.4179 0.3477 0.8393
vn 0.4076 0.3594 0.8395
vn 0.4076 0.3574 0.8403
vn 0.3930 0.3669 0.8432
vn 0.3918 0.3655 0.8443
vn 0.3349 0.3601 0.8707
vn 0.3394 0.3601 0.8690
vn 0.4011 0.3519 0.8457
vn 0.4019 0.3516 0.8455
vn 0.4008 0.3515 0.8461
vn 0.3991 0.3538 0.8459
vn 0.3987 0.3545 0.8458
vn 0.3331 0.3917 0.8577
vn 0.5062 0.3361 0.7942
vn 0.1305 0.4304 0.8931
vn -0.0941 0.4654 0.8801
vn -0.2502 0.4184 0.8731
vn 0.4225 0.3476 0.8370
vn 0.4308 0.3471 0.8330
vn 0.3389 0.3310 0.8807
vn 0.5223 0.3347 0.7843
vn 0.1285 0.3259 0.9366
vn -0.0935 0.2862 0.9536
vn -0.2517 0.3128 0.9159
vn -0.3461 0.3542 0.8688
vn -0.3542 0.3534 0.8658
vn 0.6900 0.2950 0.6610
vn 0.6902 0.2950 0.6607
vn 0.6893 0.2952 0.6616
vn 0.6836 0.3021 0.6644
vn 0.6648 0.3019 0.6833
vn 0.6441 0.3272 0.6914
vn 0.6654 0.3297 0.6697
vn 0.6901 0.2988 0.6591
vn 0.6898 0.2958 0.6608
vn 0.7007 0.3254 0.6349
vn 0.6975 0.3281 0.6370
vn 0.7147 0.2922 0.6355
vn 0.7146 0.2877 0.6377
vn 0.5518 0.2114 0.8067
vn 0.5411 0.1999 0.8169
vn -0.3668 0.3265 0.8711
vn -0.3682 0.3266 0.8705
vn -0.3657 0.3261 0.8717
vn -0.3626 0.3271 0.8726
vn -0.3635 0.3264 0.8725
vn -0.3612 0.3275 0.8731
vn -0.3125 0.3347 0.8890
vn -0.3624 0.3271 0.8727
vn -0.3063 0.3356 0.8908
vn -0.3610 0.3274 0.8732
vn -0.3637 0.3263 0.8725
vn -0.3667 0.3266 0.8711
vn -0.3862 0.3217 0.8645
vn -0.3853 0.3244 0.8639
vn -0.3656 0.3261 0.8718
vn -0.3679 0.3267 0.8706
vn -0.6270 0.3751 0.6828
vn -0.6285 0.3745 0.6818
vn -0.6272 0.3756 0.6823
vn -0.6242 0.3775 0.6840
vn -0.6257 0.3766 0.6832
vn -0.6278 0.3762 0.6814
vn -0.6272 0.3760 0.6821
vn -0.6257 0.3761 0.6834
vn -0.6232 0.3786 0.6843
vn -0.6231 0.3784 0.6845
vn -0.6122 0.3811 0.6928
vn -0.6094 0.3758 0.6981
vn -0.5439 0.2149 0.8112
vn -0.5340 0.2013 0.8212
vn -0.4339 0.5899 0.6810
vn -0.2224 0.5965 0.7712
vn -0.6243 -0.4491 0.6392
vn -0.2224 -0.6218 0.7509
vn -0.6841 0.6407 0.3486
vn -0.6842 -0.6518 0.3272
vn -0.5913 0.7992 0.1083
vn -0.5913 -0.8023 0.0818
vn -0.0000 -0.9999 -0.0166
vn -0.0000 0.9999 0.0166
vn -0.8549 -0.5180 -0.0292
vn -0.7690 0.6383 -0.0347
vn 0.2224 -0.6218 0.7509
vn 0.2224 0.5966 0.7711
vn 0.6243 -0.4491 0.6392
vn 0.4339 0.5899 0.6810
vn 0.6841 0.6407 0.3486
vn 0.6841 -0.6518 0.3272
vn 0.5913 0.7992 0.1083
vn 0.5913 -0.8023 0.0818
vn 0.8549 -0.5180 -0.0292
vn 0.7690 0.6383 -0.0347
vn -0.1001 0.4647 0.8798
vn -0.0390 0.7751 0.6307
vn -0.0160 0.9951 0.0977
vn -0.0337 0.9948 0.0962
vn -0.0194 0.9959 0.0880
vn -0.0421 0.9955 0.0853
vn -0.0230 0.9959 0.0878
vn -0.0497 0.9949 0.0882
vn -0.0419 0.9955 0.0846
vn -0.0199 0.9964 0.0820
vn 0.1002 0.4646 0.8798
vn 0.0460 0.6555 0.7538
vn 0.0160 0.9951 0.0977
vn 0.0337 0.9948 0.0962
vn 0.0194 0.9959 0.0880
vn 0.0421 0.9955 0.0853
vn 0.0230 0.9959 0.0878
vn 0.0497 0.9949 0.0882
vn 0.0419 0.9955 0.0846
vn 0.0199 0.9964 0.0820
vn 0.9924 0.0322 0.1191
vn 0.9876 0.0234 0.1552
vn 0.9854 0.0269 0.1678
vn 0.9853 0.0683 0.1566
vn 0.9860 0.0688 0.1517
vn 0.9935 0.0834 0.0768
vn 0.9945 0.0834 0.0638
vn 0.9948 0.0832 0.0592
vn 0.9949 0.0822 0.0590
vn 0.9963 0.0657 0.0552
vn 0.9965 0.0634 0.0543
vn 0.9981 0.0369 0.0493
vn 0.9982 0.0361 0.0489
vn 0.9974 0.0497 0.0513
vn 0.9974 0.0508 0.0515
vn 0.9981 0.0362 0.0490
vt 0.000000 0.000000
vt 0.405868 1.019785
vt 0.416304 1.029421
vt 0.405868 1.094805
vt 0.936509 0.130274
vt 0.942494 0.067008
vt 0.947453 0.127542
vt 0.583794 0.291492
vt 0.589160 0.217208
vt 0.594834 0.284021
vt 0.945864 0.030564
vt 0.949916 0.049134
vt 0.937764 0.044759
vt 0.939496 0.050225
vt 0.538780 0.477140
vt 0.535861 0.394373
vt 0.562463 0.480834
vt 0.559927 0.393259
vt 0.546650 0.562921
vt 0.569159 0.559477
vt 0.556911 0.627749
vt 0.579537 0.626907
vt 0.564075 0.393067
vt 0.566672 0.481474
vt 0.568263 0.393285
vt 0.571626 0.486576
vt 0.573425 0.558746
vt 0.578527 0.559034
vt 0.583980 0.626885
vt 0.589092 0.627952
vt 0.535120 0.477487
vt 0.532268 0.394463
vt 0.553445 0.629140
vt 0.543128 0.563619
vt 0.570543 0.393471
vt 0.573934 0.486834
vt 0.591318 0.628619
vt 0.580854 0.559470
vt 0.589123 0.638566
vt 0.591277 0.639499
vt 0.589656 0.646144
vt 0.587600 0.644881
vt 0.586096 0.639453
vt 0.583769 0.644913
vt 0.585625 0.650383
vt 0.573966 0.672862
vt 0.576122 0.675258
vt 0.573309 0.689048
vt 0.575796 0.690177
vt 0.937793 0.613734
vt 0.939560 0.608807
vt 0.939667 0.615154
vt 0.587718 0.651969
vt 0.578337 0.676936
vt 0.578116 0.691745
vt 0.570246 0.688877
vt 0.591355 0.686253
vt 0.644017 0.636560
vt 0.645772 0.630122
vt 0.576338 0.701419
vt 0.578643 0.702895
vt 0.591282 0.699698
vt 0.591613 0.711820
vt 0.648117 0.622507
vt 0.648612 0.610480
vt 0.595134 0.562229
vt 0.587170 0.488739
vt 0.583929 0.394670
vt 0.920254 0.284181
vt 0.931941 0.285228
vt 0.923214 0.365702
vt 0.568189 0.388199
vt 0.568336 0.294739
vt 0.570457 0.387794
vt 0.563539 0.300312
vt 0.564018 0.388816
vt 0.567622 0.222609
vt 0.572700 0.221835
vt 0.575795 0.153751
vt 0.580841 0.152133
vt 0.559362 0.301337
vt 0.559870 0.389008
vt 0.535799 0.390128
vt 0.535847 0.307199
vt 0.540764 0.220739
vt 0.563340 0.222349
vt 0.548780 0.155204
vt 0.571361 0.154205
vt 0.532183 0.307182
vt 0.532208 0.390188
vt 0.545268 0.154210
vt 0.537224 0.220444
vt 0.583034 0.151249
vt 0.575005 0.221176
vt 0.559997 0.092939
vt 0.563046 0.092563
vt 0.575003 0.135794
vt 0.564223 0.108800
vt 0.576658 0.130166
vt 0.578826 0.135474
vt 0.577519 0.141038
vt 0.566313 0.106181
vt 0.565484 0.091206
vt 0.580579 0.141640
vt 0.578689 0.128390
vt 0.580833 0.134022
vt 0.568466 0.104301
vt 0.567742 0.089429
vt 0.935171 0.157241
vt 0.933275 0.158261
vt 0.933502 0.151441
vt 0.582696 0.140501
vt 0.590597 0.119270
vt 0.592581 0.125531
vt 0.581158 0.093923
vt 0.595202 0.132908
vt 0.596014 0.144752
vt 0.570628 0.294260
vt 0.583778 0.385471
vt 0.920178 0.279224
vt 0.920327 0.197553
vt 0.931810 0.277196
vt 0.580649 0.080487
vt 0.567883 0.078338
vt 0.580508 0.068295
vt 0.565617 0.079948
vt 0.562666 0.080793
vt 0.573358 0.700849
vt 0.147224 0.121041
vt 0.149718 0.120476
vt 0.171723 0.161513
vt 0.122020 0.169265
vt 0.146042 0.212024
vt 0.097419 0.222157
vt 0.123887 0.266190
vt 0.164748 0.241991
vt 0.144253 0.292081
vt 0.188671 0.195545
vt 0.173082 0.255584
vt 0.153347 0.303248
vt 0.182156 0.270887
vt 0.163830 0.316550
vt 0.190546 0.285435
vt 0.173634 0.325818
vt 0.203623 0.231082
vt 0.196043 0.212466
vt 0.210559 0.250139
vt 0.138113 0.357302
vt 0.149653 0.369070
vt 0.126558 0.421235
vt 0.138788 0.431530
vt 0.159871 0.375778
vt 0.151891 0.436264
vt 0.115660 0.410594
vt 0.128411 0.347332
vt 0.093560 0.392668
vt 0.106531 0.325930
vt 0.061480 0.367027
vt 0.075795 0.292171
vt 0.056171 0.362720
vt 0.070651 0.287158
vt 0.047256 0.358815
vt 0.061654 0.280594
vt 0.087825 0.231717
vt 0.077126 0.230384
vt 0.060014 0.279371
vt 0.075324 0.229923
vt 0.073026 0.230636
vt 0.058343 0.277980
vt 0.062707 0.237016
vt 0.043927 0.357036
vt 0.033679 0.350657
vt 0.047819 0.268754
vt 0.045634 0.358086
vt 0.054500 0.249093
vt 0.780829 0.093755
vt 0.776465 0.044705
vt 0.796494 0.087498
vt 0.789765 0.018841
vt 0.430228 0.151129
vt 0.433594 0.198308
vt 0.412730 0.158117
vt 0.418202 0.201005
vt 0.777781 0.030676
vt 0.800486 0.225365
vt 0.801663 0.246906
vt 0.786356 0.227841
vt 0.417986 0.221030
vt 0.434877 0.221774
vt 0.435143 0.245711
vt 0.785070 0.170140
vt 0.785535 0.150080
vt 0.800895 0.172176
vt 0.800367 0.194063
vt 0.783832 0.190085
vt 0.798334 0.216666
vt 0.704643 0.068438
vt 0.703471 0.047192
vt 0.721457 0.065646
vt 0.720998 0.171696
vt 0.705088 0.169436
vt 0.717485 0.316564
vt 0.702329 0.313673
vt 0.714263 0.479795
vt 0.700083 0.477693
vt 0.710640 0.682915
vt 0.695775 0.683277
vt 0.428807 0.168219
vt 0.421100 0.089588
vt 0.487660 0.148465
vt 0.479046 0.068295
vt 0.491764 0.198184
vt 0.432259 0.216592
vt 0.493228 0.224725
vt 0.433574 0.240653
vt 0.494205 0.252510
vt 0.433847 0.265196
vt 0.433243 0.290263
vt 0.494560 0.279787
vt 0.430914 0.316149
vt 0.494576 0.305742
vt 0.493977 0.438190
vt 0.426504 0.436880
vt 0.493277 0.602683
vt 0.420336 0.601907
vt 0.492509 0.789109
vt 0.413568 0.787823
vt 0.405868 1.019215
vt 0.491651 0.988595
vt 0.051702 0.455254
vt 0.086646 0.477151
vt 0.042620 0.581682
vt 0.080937 0.597750
vt 0.032665 0.792930
vt 0.076607 0.791081
vt 0.091607 0.671081
vt 0.091047 0.854276
vt 0.047665 0.672930
vt 0.043116 0.857975
vt 0.109655 0.494201
vt 0.100221 0.787060
vt 0.076047 0.974276
vt 0.099376 0.969993
vt 0.104188 0.615267
vt 0.101476 1.111292
vt 0.078352 1.115543
vt 0.062711 0.999172
vt 0.093352 0.995543
vt 0.043377 0.673072
vt 0.057620 0.461682
vt 0.037082 0.579274
vt 0.028377 0.793072
vt 0.025221 0.794255
vt 0.030069 0.578231
vt 0.046225 0.451785
vt 0.037718 0.449836
vt 0.036008 0.449452
vt 0.023096 0.794993
vt 0.023150 0.978382
vt 0.038150 0.858382
vt 0.035797 0.858579
vt 0.038096 0.674993
vt 0.036238 0.675239
vt 0.010154 0.999048
vt 0.010792 0.858352
vt 0.013146 0.858155
vt 0.028165 0.577942
vt 0.021238 0.795239
vt 0.026323 0.577428
vt 0.015547 0.575140
vt 0.034201 0.448695
vt 0.023683 0.444418
vt 0.010253 0.796312
vt 0.018112 0.857748
vt 0.016115 0.998827
vt 0.025486 0.859666
vt 0.025253 0.676312
vt 0.035158 0.999274
vt 0.000249 0.999751
vt 0.000481 0.859439
vt 0.149290 0.517105
vt 0.145509 0.628089
vt 0.134868 0.516863
vt 0.129495 0.631739
vt 0.144450 0.768657
vt 0.126410 0.777424
vt 0.146873 0.951416
vt 0.126375 0.960734
vt 0.151410 1.088715
vt 0.129484 1.101698
vt 0.112980 0.783020
vt 0.112608 0.966119
vt 0.116401 0.624360
vt 0.121618 0.505531
vt 0.115193 1.107085
vt 0.173068 1.068544
vt 0.167695 0.940970
vt 0.268348 0.964589
vt 0.258534 0.892316
vt 0.162738 0.758772
vt 0.235356 0.716830
vt 0.161685 0.616142
vt 0.215961 0.562228
vt 0.164448 0.515836
vt 0.166906 0.438789
vt 0.172257 0.383912
vt 0.195583 0.413023
vt 0.182792 0.336382
vt 0.199512 0.299637
vt 0.217093 0.269969
vt 0.246556 0.370969
vt 0.313570 0.427176
vt 0.347501 0.587957
vt 0.276217 0.513592
vt 0.846545 0.196733
vt 0.849091 0.197544
vt 0.821681 0.195678
vt 0.875417 0.207308
vt 0.848278 0.252121
vt 0.900761 0.266240
vt 0.870944 0.312284
vt 0.827186 0.283363
vt 0.848157 0.339014
vt 0.802430 0.231477
vt 0.817838 0.297628
vt 0.838075 0.350648
vt 0.807576 0.313622
vt 0.826297 0.364357
vt 0.798155 0.328938
vt 0.815500 0.373737
vt 0.785370 0.269127
vt 0.794088 0.249459
vt 0.777304 0.289277
vt 0.853261 0.410304
vt 0.840429 0.422275
vt 0.864178 0.480396
vt 0.850646 0.490678
vt 0.829141 0.428843
vt 0.836269 0.494955
vt 0.876238 0.469482
vt 0.864007 0.400048
vt 0.900650 0.451392
vt 0.888282 0.378224
vt 0.936115 0.425742
vt 0.922424 0.343653
vt 0.941975 0.421396
vt 0.928121 0.338529
vt 0.951697 0.417718
vt 0.938057 0.331978
vt 0.910858 0.277191
vt 0.922562 0.276475
vt 0.939863 0.330748
vt 0.924493 0.276030
vt 0.926970 0.276950
vt 0.941690 0.329293
vt 0.937995 0.284607
vt 0.955366 0.416029
vt 0.966613 0.409712
vt 0.953369 0.320038
vt 0.953474 0.417022
vt 0.946600 0.298207
vt 0.387596 0.114239
vt 0.405298 0.123741
vt 0.387275 0.173430
vt 0.404438 0.179707
vt 0.381844 0.218303
vt 0.397265 0.223179
vt 0.399063 0.111606
vt 0.378950 0.241632
vt 0.396217 0.243862
vt 0.376835 0.265733
vt 0.395059 0.267040
vt 0.375458 0.290323
vt 0.394511 0.290238
vt 0.375484 0.315410
vt 0.394864 0.315782
vt 0.377777 0.434823
vt 0.396075 0.431961
vt 0.381150 0.602546
vt 0.770525 0.568071
vt 0.754729 0.570905
vt 0.768090 0.418183
vt 0.757660 0.741474
vt 0.403077 0.758248
vt 0.386941 0.760534
vt 0.400956 0.571637
vt 0.390387 0.991575
vt 0.776348 0.954052
vt 0.760823 0.953563
vt 0.772472 0.739375
vt 0.359583 0.068295
vt 0.351846 0.145930
vt 0.332070 0.215653
vt 0.339720 0.221040
vt 0.336676 0.248644
vt 0.334387 0.275800
vt 0.332728 0.301883
vt 0.327739 0.437967
vt 0.350335 0.576303
vt 0.347654 0.767044
vt 0.384424 0.793063
vt 0.387957 1.029959
vt 0.344879 0.971101
vt 0.906039 0.543546
vt 0.944489 0.522037
vt 0.951140 0.659666
vt 0.909191 0.674675
vt 0.956625 0.889283
vt 0.909052 0.884411
vt 0.905062 1.082827
vt 0.956669 1.089999
vt 0.880652 0.560521
vt 0.883577 0.878666
vt 0.879928 1.076830
vt 0.883540 0.692070
vt 0.874475 1.229614
vt 0.899412 1.235572
vt 0.932528 1.241144
vt 0.961267 0.889713
vt 0.957202 0.657402
vt 0.964697 0.891203
vt 0.964830 0.656670
vt 0.950513 0.518616
vt 0.959741 0.517040
vt 0.961635 0.516752
vt 0.966947 0.892103
vt 0.962056 1.090827
vt 0.964606 1.091212
vt 0.968956 0.892487
vt 0.960832 1.244342
vt 0.966900 0.656466
vt 0.968892 0.656069
vt 0.980654 0.654309
vt 0.963598 0.516011
vt 0.975124 0.512124
vt 0.980836 0.894346
vt 0.951335 0.954883
vt 0.950206 1.096379
vt 0.946370 0.954120
vt 0.358425 0.001212
vt 0.360148 0.142843
vt 0.352442 0.000987
vt 0.975760 1.093101
vt 0.960128 1.097810
vt 0.963965 0.956979
vt 0.944236 1.095737
vt 0.924118 1.093431
vt 0.855713 0.708393
vt 0.838359 0.703421
vt 0.852704 0.583506
vt 0.837133 0.582864
vt 0.836109 0.855891
vt 0.855367 0.866470
vt 0.828983 1.053794
vt 0.850952 1.065199
vt 0.820832 1.202269
vt 0.844353 1.217623
vt 0.869861 0.873410
vt 0.865679 1.071724
vt 0.870061 0.701197
vt 0.867435 0.572050
vt 0.859703 1.224342
vt 0.797886 1.179152
vt 0.696895 1.060605
vt 0.806634 1.041138
vt 0.709345 0.982907
vt 0.816540 0.843970
vt 0.738814 0.794010
vt 0.821167 0.689398
vt 0.763702 0.627560
vt 0.820627 0.580424
vt 0.819906 0.496770
vt 0.815551 0.436917
vt 0.789431 0.466967
vt 0.805296 0.384653
vt 0.788061 0.343702
vt 0.769704 0.310342
vt 0.735211 0.417980
vt 0.707050 0.578310
vt 0.669440 0.737157
vt 0.713706 0.552230
vt 0.918499 0.383361
vt 0.914786 0.383532
vt 0.918448 0.379555
vt 0.736050 0.000249
vt 0.770523 0.038066
vt 0.760510 0.040366
vt 0.795503 0.831057
vt 0.795272 0.835412
vt 0.786075 0.846443
vt 0.788771 0.846146
vt 0.795503 0.860414
vt 0.317116 0.345963
vt 0.313382 0.352560
vt 0.313382 0.345678
vt 0.010005 0.120227
vt 0.725990 0.665442
vt 0.724031 0.663218
vt 0.725465 0.661710
vt 0.724031 0.682957
vt 0.447881 1.005173
vt 0.447881 0.981653
vt 0.450349 1.003324
vt 0.724705 0.636830
vt 0.726989 0.638174
vt 0.724705 0.653127
vt 0.816996 0.850509
vt 0.815006 0.851993
vt 0.817010 0.832800
vt 0.450905 0.981653
vt 0.453143 0.983599
vt 0.450905 1.005037
vt 0.346879 0.760538
vt 0.349128 0.762108
vt 0.347281 0.764245
vt 0.723887 0.634501
vt 0.721873 0.633095
vt 0.723889 0.613398
vt 0.721873 0.613581
vt 0.841183 0.840819
vt 0.843315 0.831057
vt 0.843468 0.840819
vt 0.699555 0.683693
vt 0.707947 0.693925
vt 0.699068 0.687442
vt 0.025005 0.000227
vt 0.817508 0.850690
vt 0.817536 0.834089
vt 0.819658 0.851634
vt 0.819658 0.831057
vt 0.695775 0.718863
vt 0.697888 0.715810
vt 0.709200 0.717706
vt 0.707235 0.714986
vt 0.860236 0.855963
vt 0.859029 0.852285
vt 0.864890 0.836759
vt 0.800308 0.832004
vt 0.802278 0.831875
vt 0.800336 0.849102
vt 0.802307 0.851939
vt 0.727366 0.716973
vt 0.729141 0.713817
vt 0.727557 0.722983
vt 0.355709 0.874790
vt 0.353228 0.860939
vt 0.354996 0.850700
vt 0.729779 0.735384
vt 0.727638 0.725994
vt 0.726795 0.836730
vt 0.717212 0.836790
vt 0.726712 0.833642
vt 0.838805 0.845997
vt 0.838805 0.831057
vt 0.840685 0.845880
vt 0.727829 0.731932
vt 0.717214 0.735426
vt 0.831486 0.848156
vt 0.831486 0.831057
vt 0.833681 0.848023
vt 0.866234 0.832774
vt 0.866579 0.837184
vt 0.864499 0.833114
vt 0.506623 0.988022
vt 0.506186 0.983950
vt 0.508509 0.988496
vt 0.500077 0.967845
vt 0.508124 0.983570
vt 0.860392 0.817345
vt 0.859029 0.818695
vt 0.501424 1.009471
vt 0.502869 1.011766
vt 0.804224 0.831058
vt 0.804224 0.853580
vt 0.436720 1.004977
vt 0.436688 0.982566
vt 0.438861 1.006810
vt 0.809650 0.852180
vt 0.809650 0.831057
vt 0.811802 0.850278
vt 0.799801 0.850831
vt 0.797826 0.852591
vt 0.799810 0.833162
vt 0.797843 0.831608
vt 0.461881 1.001595
vt 0.463731 0.981653
vt 0.463731 1.002207
vt 0.722540 0.653174
vt 0.721873 0.636830
vt 0.724288 0.654838
vt 0.688465 0.844987
vt 0.688827 0.840915
vt 0.690114 0.844987
vt 0.836597 0.847493
vt 0.836597 0.831057
vt 0.838307 0.847454
vt 0.431734 0.982268
vt 0.431715 1.005705
vt 0.429677 0.981653
vt 0.429677 1.006429
vt 0.797151 0.856709
vt 0.796001 0.853239
vt 0.799065 0.855616
vt 0.826987 0.848866
vt 0.826987 0.831057
vt 0.828683 0.847706
vt 0.724999 0.690507
vt 0.725997 0.687430
vt 0.726905 0.689538
vt 0.836100 0.833247
vt 0.834179 0.847746
vt 0.834179 0.831058
vt 0.716204 0.683693
vt 0.716078 0.687407
vt 0.822395 0.832006
vt 0.822358 0.848287
vt 0.820155 0.831057
vt 0.820155 0.851202
vt 0.725758 0.706956
vt 0.728018 0.709435
vt 0.716078 0.709118
vt 0.830988 0.847080
vt 0.829180 0.848802
vt 0.829180 0.831058
vt 0.442355 0.985811
vt 0.443681 0.981653
vt 0.444366 0.986995
vt 0.728871 0.688108
vt 0.442355 1.005641
vt 0.441800 0.981653
vt 0.441800 1.006106
vt 0.439463 0.982322
vt 0.439417 1.004768
vt 0.824336 0.847030
vt 0.654423 0.177922
vt 0.651705 0.175743
vt 0.653682 0.173495
vt 0.653458 0.198412
vt 0.650491 0.200159
vt 0.652301 0.202600
vt 0.661504 0.249967
vt 0.661498 0.254414
vt 0.664032 0.250272
vt 0.663458 0.262870
vt 0.661143 0.262737
vt 0.660122 0.279156
vt 0.662534 0.279382
vt 0.667225 0.275411
vt 0.668034 0.279746
vt 0.670040 0.277601
vt 0.671333 0.250864
vt 0.668456 0.250653
vt 0.665998 0.366141
vt 0.666974 0.362268
vt 0.668666 0.365179
vt 0.668714 0.390714
vt 0.665956 0.387482
vt 0.661460 0.362222
vt 0.656797 0.286117
vt 0.651984 0.289904
vt 0.651145 0.286044
vt 0.649182 0.288352
vt 0.649226 0.314378
vt 0.652051 0.311152
vt 0.661431 0.390690
vt 0.656728 0.314663
vt 0.672629 0.032553
vt 0.674921 0.032947
vt 0.672517 0.160726
vt 0.674508 0.164834
vt 0.671358 0.144590
vt 0.671023 0.148433
vt 0.668510 0.148108
vt 0.668637 0.144248
vt 0.668434 0.018127
vt 0.671277 0.018531
vt 0.660701 0.147243
vt 0.661980 0.037098
vt 0.661210 0.014163
vt 0.663792 0.014559
vt 0.666460 0.204192
vt 0.664014 0.203667
vt 0.667878 0.467943
vt 0.668510 0.463382
vt 0.670458 0.465888
vt 0.668566 0.490546
vt 0.671333 0.492704
vt 0.669515 0.495187
vt 0.663067 0.463454
vt 0.653919 0.391959
vt 0.660634 0.463493
vt 0.652726 0.387428
vt 0.650958 0.389987
vt 0.654576 0.414580
vt 0.661572 0.495292
vt 0.664023 0.495265
vt 0.651833 0.416803
vt 0.653732 0.419315
vt 0.671793 0.599749
vt 0.672116 0.595382
vt 0.674192 0.597920
vt 0.673680 0.620146
vt 0.676588 0.623146
vt 0.666264 0.618691
vt 0.663730 0.622825
vt 0.661296 0.596987
vt 0.664232 0.597814
vt 0.662835 0.593655
vt 0.670854 0.592098
vt 0.668397 0.592586
vt 0.667197 0.548399
vt 0.664746 0.548781
vt 0.510973 1.116107
vt 0.522663 1.098416
vt 0.514366 1.121702
vt 0.526214 1.102724
vt 0.527680 1.084841
vt 0.531613 1.088788
vt 0.773348 0.726821
vt 0.766037 0.659370
vt 0.777327 0.726961
vt 0.854419 0.886905
vt 0.858531 0.817345
vt 0.858532 0.887562
vt 0.514029 1.004081
vt 0.509662 1.005787
vt 0.523184 1.083824
vt 0.519838 1.093884
vt 0.509662 1.110229
vt 0.547765 0.958004
vt 0.543165 0.960516
vt 0.539216 0.932788
vt 0.534685 0.936899
vt 0.545340 0.974830
vt 0.549892 0.974720
vt 0.543881 0.937809
vt 0.548320 0.937702
vt 0.535830 1.013131
vt 0.895099 0.860352
vt 0.891039 0.859239
vt 0.902221 0.791708
vt 0.537085 1.052060
vt 0.532183 1.050863
vt 0.541161 0.975058
vt 0.775439 0.570116
vt 0.779247 0.571336
vt 0.777297 0.584717
vt 0.539552 0.963810
vt 0.532183 0.942359
vt 0.530923 0.921499
vt 0.530934 0.998821
vt 0.522948 0.925964
vt 0.523103 1.003509
vt 0.522871 0.883329
vt 0.530992 0.876072
vt 0.522846 0.860195
vt 0.530390 0.852135
vt 0.522774 0.835845
vt 0.529939 0.827365
vt 0.530068 0.801951
vt 0.522740 0.811342
vt 0.530327 0.775695
vt 0.522704 0.786397
vt 0.522422 0.650895
vt 0.530502 0.651492
vt 0.522117 0.481562
vt 0.531047 0.481567
vt 0.521732 0.289924
vt 0.531614 0.290204
vt 0.531293 0.068295
vt 0.521296 0.069996
vt 0.522863 1.003511
vt 0.514943 0.998883
vt 0.522712 0.925965
vt 0.514761 0.921564
vt 0.522635 0.883331
vt 0.514450 0.876135
vt 0.522608 0.860197
vt 0.514999 0.852186
vt 0.522533 0.835846
vt 0.515392 0.827417
vt 0.515140 0.802004
vt 0.522494 0.811344
vt 0.514740 0.775755
vt 0.522445 0.786400
vt 0.522155 0.650898
vt 0.514077 0.651559
vt 0.521851 0.481565
vt 0.512920 0.481649
vt 0.521466 0.289926
vt 0.511536 0.290301
vt 0.511018 0.068400
vt 0.521029 0.069998
vt 0.881609 0.822288
vt 0.881679 0.860458
vt 0.881398 0.822290
vt 0.878421 0.711911
vt 0.878398 0.691710
vt 0.878627 0.711909
vt 0.499878 0.976473
vt 0.498783 0.917453
vt 0.871275 0.705627
vt 0.858715 0.703916
vt 0.871754 0.684715
vt 0.495145 0.772576
vt 0.495145 0.484483
vt 0.886759 0.562920
vt 0.901812 0.562650
vt 0.901812 0.754597
s 1
usemtl Material.052
f 1/1/1 2/1/2 3/1/3
f 4/1/4 3/1/3 2/1/2
f 2/1/2 1/1/1 5/1/5
f 6/2/6 5/3/5 1/4/1
f 7/1/7 8/1/8 9/1/9
f 10/5/10 9/6/9 8/7/8
f 8/1/8 11/1/11 10/1/10
f 12/8/12 10/9/10 11/10/11
f 13/1/13 7/1/14 14/1/15
f 9/1/16 14/1/15 7/1/14
f 15/11/17 13/12/18 16/13/19
f 17/14/20 16/13/19 13/12/18
f 16/1/19 18/1/21 15/1/17
f 19/1/22 15/1/17 18/1/21
f 19/1/23 18/1/24 20/1/25
f 21/15/26 22/16/27 23/17/28
f 24/18/29 23/17/28 22/16/27
f 21/15/26 23/17/28 25/19/30
f 26/20/31 25/19/30 23/17/28
f 25/19/30 26/20/31 27/21/32
f 28/22/33 27/21/32 26/20/31
f 24/18/29 29/23/34 23/17/28
f 30/24/35 23/17/28 29/23/34
f 23/17/28 30/24/35 26/20/31
f 29/23/34 31/25/36 30/24/35
f 32/26/37 30/24/35 31/25/36
f 30/24/35 32/26/37 33/27/38
f 26/20/31 33/27/38 28/22/33
f 33/27/38 26/20/31 30/24/35
f 34/28/39 33/27/38 32/26/37
f 33/27/38 34/28/39 35/29/40
f 35/29/40 28/22/33 33/27/38
f 36/30/41 35/29/40 34/28/39
f 21/15/26 37/31/42 22/16/27
f 38/32/43 22/16/27 37/31/42
f 27/21/32 39/33/44 25/19/30
f 40/34/45 25/19/30 39/33/44
f 37/31/42 21/15/26 40/34/45
f 25/19/30 40/34/45 21/15/26
f 31/25/36 41/35/46 32/26/37
f 42/36/47 32/26/37 41/35/46
f 36/30/41 34/28/39 43/37/48
f 44/38/49 43/37/48 34/28/39
f 34/28/39 32/26/37 44/38/49
f 42/36/47 44/38/49 32/26/37
f 36/30/41 45/39/50 35/29/40
f 45/39/50 36/30/41 46/40/51
f 43/37/48 46/40/51 36/30/41
f 46/40/51 47/41/52 45/39/50
f 48/42/53 45/39/50 47/41/52
f 48/42/53 49/43/54 45/39/50
f 49/43/54 48/42/53 50/44/55
f 51/45/56 50/44/55 48/42/53
f 50/44/55 51/45/56 52/46/57
f 53/47/58 52/46/57 51/45/56
f 52/46/57 53/47/58 54/48/59
f 55/49/60 54/48/59 53/47/58
f 51/50/56 48/51/53 56/52/61
f 47/41/52 56/53/61 48/42/53
f 53/47/58 51/45/56 57/54/62
f 56/53/61 57/54/62 51/45/56
f 53/47/58 57/54/62 55/49/60
f 58/55/63 55/49/60 57/54/62
f 52/46/57 27/21/32 50/44/55
f 54/48/59 27/21/32 52/46/57
f 54/48/59 59/56/64 27/21/32
f 39/33/44 27/21/32 59/56/64
f 28/22/33 50/44/55 27/21/32
f 49/43/54 50/44/55 35/29/40
f 28/22/33 35/29/40 50/44/55
f 49/43/54 35/29/40 45/39/50
f 57/54/62 56/53/61 60/57/65
f 57/54/62 60/57/65 58/55/63
f 61/58/66 60/57/65 56/53/61
f 56/53/61 47/41/52 61/58/66
f 62/59/67 61/58/66 47/41/52
f 55/49/60 58/55/63 63/60/68
f 55/49/60 63/60/68 54/48/59
f 64/61/69 63/60/68 58/55/63
f 58/55/63 65/62/70 64/61/69
f 65/62/70 58/55/63 60/57/65
f 66/63/71 64/61/69 65/62/70
f 47/41/52 46/40/51 62/59/67
f 67/64/72 62/59/67 46/40/51
f 67/64/72 46/40/51 68/65/73
f 43/37/48 68/65/73 46/40/51
f 68/65/73 43/37/48 69/66/74
f 44/38/49 69/66/74 43/37/48
f 69/66/74 44/38/49 70/67/75
f 42/36/47 70/67/75 44/38/49
f 70/67/75 42/36/47 71/68/76
f 41/69/46 71/70/76 42/71/47
f 71/1/76 41/1/46 72/1/77
f 73/1/78 72/1/77 41/1/46
f 41/1/46 31/1/36 73/1/78
f 74/1/79 73/1/78 31/1/36
f 74/72/79 75/73/80 73/74/78
f 75/73/80 74/72/79 76/75/81
f 77/76/82 76/75/81 74/72/79
f 76/75/81 78/77/83 75/73/80
f 79/78/84 75/73/80 78/77/83
f 78/77/83 80/79/85 79/78/84
f 81/80/86 79/78/84 80/79/85
f 76/75/81 77/76/82 82/81/87
f 83/82/88 82/81/87 77/76/82
f 83/82/88 84/83/89 82/81/87
f 85/84/90 82/81/87 84/83/89
f 85/84/90 86/85/91 82/81/87
f 87/86/92 82/81/87 86/85/91
f 78/77/83 76/75/81 87/86/92
f 82/81/87 87/86/92 76/75/81
f 86/85/91 88/87/93 87/86/92
f 89/88/94 87/86/92 88/87/93
f 80/79/85 78/77/83 89/88/94
f 87/86/92 89/88/94 78/77/83
f 85/84/90 84/83/89 90/89/95
f 91/90/96 90/89/95 84/83/89
f 88/87/93 86/85/91 92/91/97
f 93/92/98 92/91/97 86/85/91
f 86/85/91 85/84/90 93/92/98
f 90/89/95 93/92/98 85/84/90
f 81/80/86 94/93/99 79/78/84
f 95/94/100 79/78/84 94/93/99
f 92/91/97 96/95/101 88/87/93
f 97/96/102 88/87/93 96/95/101
f 89/88/94 88/87/93 98/97/103
f 99/98/104 98/97/103 88/87/93
f 88/87/93 97/96/102 99/98/104
f 98/97/103 99/98/104 100/99/105
f 100/99/105 101/100/106 98/97/103
f 102/101/107 98/97/103 101/100/106
f 103/102/108 100/99/105 99/98/104
f 99/98/104 97/96/102 103/102/108
f 104/103/109 103/102/108 97/96/102
f 102/101/107 101/100/106 105/104/110
f 100/99/105 106/105/111 101/100/106
f 107/106/112 101/100/106 106/105/111
f 101/100/106 107/106/112 105/104/110
f 106/105/111 100/99/105 108/107/113
f 103/102/108 108/107/113 100/99/105
f 103/102/108 104/103/109 108/107/113
f 109/108/114 108/107/113 104/103/109
f 110/109/115 105/110/110 107/111/112
f 105/104/110 110/112/115 81/80/86
f 105/104/110 81/80/86 80/79/85
f 80/79/85 102/101/107 105/104/110
f 102/101/107 80/79/85 98/97/103
f 94/93/99 81/80/86 110/112/115
f 89/88/94 98/97/103 80/79/85
f 106/105/111 16/113/116 107/106/112
f 17/114/117 107/106/112 16/113/116
f 16/113/116 106/105/111 18/115/118
f 108/107/113 18/115/118 106/105/111
f 108/107/113 109/108/114 18/115/118
f 107/106/112 17/114/117 110/112/115
f 14/116/119 110/112/115 17/114/117
f 14/116/120 9/117/121 110/112/115
f 94/93/99 110/112/115 9/117/121
f 9/117/121 10/9/122 94/93/99
f 95/94/100 94/93/99 10/9/122
f 10/9/122 12/8/123 95/94/100
f 111/118/124 95/94/100 12/8/123
f 111/118/124 75/73/80 95/94/100
f 111/118/124 73/74/78 75/73/80
f 79/78/84 95/94/100 75/73/80
f 12/8/123 72/119/77 111/118/124
f 73/120/78 111/121/124 72/122/77
f 20/123/125 18/115/118 109/108/114
f 109/108/114 112/124/126 20/123/125
f 113/125/127 20/123/125 112/124/126
f 112/124/126 109/108/114 114/126/128
f 104/103/109 114/126/128 109/108/114
f 104/103/109 97/96/102 114/126/128
f 115/127/129 114/126/128 97/96/102
f 115/127/129 97/96/102 96/95/101
f 116/128/130 54/48/59 63/60/68
f 54/48/59 116/128/130 59/56/64
f 117/129/131 118/130/132 119/131/133
f 117/129/131 119/131/133 120/132/134
f 121/133/135 120/132/134 119/131/133
f 120/132/134 121/133/135 122/134/136
f 123/135/137 122/134/136 121/133/135
f 121/133/135 124/136/138 123/135/137
f 125/137/139 123/135/137 124/136/138
f 119/131/133 126/138/140 121/133/135
f 124/136/138 121/133/135 126/138/140
f 124/136/138 127/139/141 125/137/139
f 128/140/142 125/137/139 127/139/141
f 127/139/141 129/141/143 128/140/142
f 130/142/144 128/140/142 129/141/143
f 129/141/143 131/143/145 130/142/144
f 132/144/146 130/142/144 131/143/145
f 129/141/143 127/139/141 133/145/147
f 134/146/148 133/145/147 127/139/141
f 126/138/140 134/146/148 124/136/138
f 127/139/141 124/136/138 134/146/148
f 133/145/147 135/147/149 129/141/143
f 131/143/145 129/141/143 135/147/149
f 128/140/142 130/142/144 136/148/150
f 137/149/151 136/148/150 130/142/144
f 130/142/144 132/144/146 137/149/151
f 136/148/150 137/149/151 138/150/152
f 139/151/153 138/150/152 137/149/151
f 137/149/151 140/152/154 139/151/153
f 140/152/154 137/149/151 132/144/146
f 141/153/155 139/151/153 140/152/154
f 138/150/152 142/154/156 136/148/150
f 143/155/157 136/148/150 142/154/156
f 136/148/150 143/155/157 128/140/142
f 142/154/156 144/156/158 143/155/157
f 145/157/159 143/155/157 144/156/158
f 144/156/158 146/158/160 145/157/159
f 147/159/161 145/157/159 146/158/160
f 145/157/159 147/159/161 123/135/137
f 122/134/136 123/135/137 147/159/161
f 143/155/157 145/157/159 125/137/139
f 123/135/137 125/137/139 145/157/159
f 146/158/160 148/160/162 147/159/161
f 149/161/163 147/159/161 148/160/162
f 148/160/162 150/162/164 149/161/163
f 151/163/165 149/161/163 150/162/164
f 149/161/163 151/163/165 152/164/166
f 122/134/136 147/159/161 152/164/166
f 149/161/163 152/164/166 147/159/161
f 153/165/167 152/164/166 151/163/165
f 151/163/165 154/166/168 153/165/167
f 155/167/169 153/165/167 154/166/168
f 155/167/169 154/166/168 156/168/170
f 157/169/171 156/168/170 154/166/168
f 156/168/170 157/169/171 158/170/172
f 157/169/171 154/166/168 159/171/173
f 159/171/173 160/172/174 157/169/171
f 161/173/175 157/169/171 160/172/174
f 162/174/176 159/171/173 154/166/168
f 154/166/168 151/163/165 162/174/176
f 150/162/164 162/174/176 151/163/165
f 157/169/171 163/175/177 158/170/172
f 157/169/171 161/173/175 163/175/177
f 164/176/178 165/177/179 166/178/180
f 167/179/181 166/178/180 165/177/179
f 166/180/180 168/181/182 164/182/178
f 169/183/183 164/182/178 168/181/182
f 70/184/184 167/179/181 165/177/179
f 168/185/182 170/186/185 169/187/183
f 171/188/186 169/183/183 170/189/185
f 170/189/185 172/190/187 171/188/186
f 173/191/188 171/192/186 172/193/187
f 172/193/187 174/194/189 173/191/188
f 175/195/190 173/191/188 174/194/189
f 174/194/189 176/196/191 175/195/190
f 177/197/192 175/198/190 176/199/191
f 176/199/191 178/200/193 177/197/192
f 179/201/194 177/197/192 178/200/193
f 178/200/193 180/202/195 179/201/194
f 181/203/196 179/201/194 180/202/195
f 180/202/195 182/204/197 181/203/196
f 183/205/198 181/203/196 182/204/197
f 182/204/197 184/206/199 183/205/198
f 185/207/200 183/205/198 184/206/199
f 166/208/201 167/209/202 186/210/203
f 187/211/204 186/210/203 167/209/202
f 186/210/203 188/212/205 166/208/201
f 168/213/206 166/208/201 188/212/205
f 188/212/205 189/214/207 168/213/206
f 170/215/208 168/213/206 189/214/207
f 189/214/207 190/216/209 170/215/208
f 172/217/210 170/215/208 190/216/209
f 172/217/210 190/216/209 174/218/211
f 191/219/212 174/218/211 190/216/209
f 174/218/211 191/219/212 176/220/213
f 192/221/214 176/220/213 191/219/212
f 192/221/214 193/222/215 176/220/213
f 178/223/216 176/220/213 193/222/215
f 193/222/215 194/224/217 178/223/216
f 180/225/218 178/223/216 194/224/217
f 194/224/217 195/226/219 180/225/218
f 182/227/220 180/225/218 195/226/219
f 182/227/220 195/226/219 184/228/221
f 196/229/222 184/228/221 195/226/219
f 146/158/160 144/156/158 197/230/223
f 198/231/224 197/230/223 144/156/158
f 197/230/223 198/231/224 199/232/225
f 200/233/226 199/232/225 198/231/224
f 199/232/225 200/233/226 201/234/227
f 202/235/228 201/234/227 200/233/226
f 202/236/228 203/237/229 201/238/227
f 204/239/230 201/238/227 203/237/229
f 144/156/158 142/154/156 198/231/224
f 205/240/231 198/231/224 142/154/156
f 198/231/224 205/240/231 200/233/226
f 202/235/228 206/241/232 203/242/229
f 207/243/233 203/242/229 206/241/232
f 206/241/232 202/235/228 208/244/234
f 200/233/226 208/244/234 202/235/228
f 208/244/234 200/233/226 205/240/231
f 207/243/233 209/245/235 203/242/229
f 210/246/236 203/242/229 209/245/235
f 211/247/237 203/237/229 210/248/236
f 203/237/229 211/247/237 204/239/230
f 201/238/227 212/249/238 199/250/225
f 201/238/227 204/239/230 212/249/238
f 213/251/239 199/232/225 212/252/238
f 212/252/238 214/253/240 213/251/239
f 215/254/241 213/251/239 214/253/240
f 213/251/239 215/254/241 216/255/242
f 217/256/243 216/255/242 215/254/241
f 216/255/242 217/256/243 148/160/162
f 148/160/162 146/158/160 216/255/242
f 197/230/223 216/255/242 146/158/160
f 216/255/242 197/230/223 213/251/239
f 150/162/164 148/160/162 217/256/243
f 199/232/225 213/251/239 197/230/223
f 217/256/243 218/257/244 150/162/164
f 162/174/176 150/162/164 218/257/244
f 214/253/240 219/258/245 215/254/241
f 219/258/245 214/253/240 220/259/246
f 214/253/240 212/252/238 220/259/246
f 220/260/246 221/261/247 219/262/245
f 222/263/248 219/262/245 221/261/247
f 223/264/249 221/265/247 220/266/246
f 224/267/250 215/254/241 219/258/245
f 218/257/244 217/256/243 224/267/250
f 215/254/241 224/267/250 217/256/243
f 219/258/245 222/268/248 224/267/250
f 224/267/250 225/269/251 218/257/244
f 225/269/251 224/267/250 222/268/248
f 225/269/251 222/268/248 226/270/252
f 225/269/251 226/270/252 227/271/253
f 227/271/253 218/257/244 225/269/251
f 218/257/244 227/271/253 162/174/176
f 228/272/254 227/271/253 226/270/252
f 229/273/255 226/270/252 222/268/248
f 227/271/253 228/272/254 159/171/173
f 159/171/173 162/174/176 227/271/253
f 160/172/174 159/171/173 228/272/254
f 220/266/246 204/274/230 223/264/249
f 230/275/256 223/264/249 204/274/230
f 220/260/246 212/249/238 204/239/230
f 221/261/247 231/276/257 222/263/248
f 229/277/255 222/263/248 231/276/257
f 221/261/247 223/278/249 231/276/257
f 232/279/258 231/280/257 223/264/249
f 230/1/256 204/1/230 211/1/237
f 125/137/139 128/140/142 143/155/157
f 233/281/259 234/282/260 235/283/261
f 236/284/262 235/283/261 234/282/260
f 233/281/259 235/283/261 141/153/155
f 139/151/153 141/153/155 235/283/261
f 234/282/260 237/285/263 236/284/262
f 238/286/264 236/284/262 237/285/263
f 237/285/263 239/287/265 238/286/264
f 240/288/266 238/286/264 239/287/265
f 239/287/265 241/289/267 240/288/266
f 242/290/268 240/288/266 241/289/267
f 238/286/264 240/288/266 243/291/269
f 238/286/264 243/291/269 236/284/262
f 244/292/270 243/291/269 240/288/266
f 240/288/266 242/290/268 244/292/270
f 245/293/271 236/284/262 243/291/269
f 236/284/262 245/293/271 235/283/261
f 246/294/272 235/283/261 245/293/271
f 235/283/261 246/294/272 139/151/153
f 247/295/273 244/292/270 242/290/268
f 138/150/152 139/151/153 246/294/272
f 246/294/272 205/240/231 138/150/152
f 142/154/156 138/150/152 205/240/231
f 243/291/269 244/292/270 206/241/232
f 243/291/269 206/241/232 245/293/271
f 207/243/233 206/241/232 244/292/270
f 244/292/270 247/295/273 207/243/233
f 208/244/234 245/293/271 206/241/232
f 245/293/271 208/244/234 246/294/272
f 205/240/231 246/294/272 208/244/234
f 209/245/235 207/243/233 247/295/273
f 241/289/267 239/287/265 248/296/274
f 249/297/275 248/296/274 239/287/265
f 248/296/274 249/297/275 250/298/276
f 251/299/277 250/298/276 249/297/275
f 249/297/275 252/300/278 251/299/277
f 253/301/279 251/299/277 252/300/278
f 252/300/278 254/302/280 253/301/279
f 255/303/281 253/301/279 254/302/280
f 256/304/282 255/303/281 254/302/280
f 256/304/282 254/302/280 233/281/259
f 234/282/260 233/281/259 254/302/280
f 254/302/280 252/300/278 234/282/260
f 256/304/282 233/281/259 257/305/283
f 141/153/155 257/305/283 233/281/259
f 257/305/283 141/153/155 258/306/284
f 257/305/283 258/306/284 259/307/285
f 255/303/281 256/304/282 259/307/285
f 257/305/283 259/307/285 256/304/282
f 258/306/284 260/308/286 259/307/285
f 140/152/154 258/306/284 141/153/155
f 258/306/284 140/152/154 260/308/286
f 132/144/146 260/308/286 140/152/154
f 260/308/286 132/144/146 261/309/287
f 260/308/286 261/309/287 259/307/285
f 131/143/145 261/309/287 132/144/146
f 237/285/263 234/282/260 252/300/278
f 261/309/287 131/143/145 262/310/288
f 135/147/149 262/310/288 131/143/145
f 263/311/289 261/309/287 262/310/288
f 263/311/289 259/307/285 261/309/287
f 263/311/289 264/312/290 259/307/285
f 255/303/281 259/307/285 264/312/290
f 264/312/290 265/313/291 255/303/281
f 253/301/279 255/303/281 265/313/291
f 253/301/279 265/313/291 251/299/277
f 266/314/292 251/299/277 265/313/291
f 266/314/292 250/298/276 251/299/277
f 239/287/265 237/285/263 249/297/275
f 252/300/278 249/297/275 237/285/263
f 267/1/293 268/1/294 158/1/295
f 156/1/296 158/1/295 268/1/294
f 268/1/294 155/1/297 156/1/296
f 268/1/294 153/1/298 155/1/297
f 268/1/294 269/1/299 153/1/298
f 152/1/300 153/1/298 269/1/299
f 158/1/295 163/1/301 267/1/293
f 270/1/302 267/1/293 163/1/301
f 163/1/301 161/1/303 270/1/302
f 271/1/303 270/1/302 161/1/303
f 269/1/299 272/1/304 152/1/300
f 122/1/305 152/1/300 272/1/304
f 273/315/306 274/316/307 275/317/308
f 274/316/307 276/318/309 275/317/308
f 277/319/310 275/317/308 276/318/309
f 276/318/309 278/320/311 277/319/310
f 279/321/312 277/319/310 278/320/311
f 277/319/310 279/321/312 280/322/313
f 281/323/314 280/322/313 279/321/312
f 280/322/313 282/324/315 277/319/310
f 275/317/308 277/319/310 282/324/315
f 280/322/313 281/323/314 283/325/316
f 284/326/317 283/325/316 281/323/314
f 283/325/316 284/326/317 285/327/318
f 286/328/319 285/327/318 284/326/317
f 285/327/318 286/328/319 287/329/320
f 288/330/321 287/329/320 286/328/319
f 285/327/318 289/331/322 283/325/316
f 290/332/323 283/325/316 289/331/322
f 283/325/316 290/332/323 280/322/313
f 282/324/315 280/322/313 290/332/323
f 287/329/320 291/333/324 285/327/318
f 289/331/322 285/327/318 291/333/324
f 284/326/317 292/334/325 286/328/319
f 293/335/326 286/328/319 292/334/325
f 286/328/319 293/335/326 288/330/321
f 292/334/325 294/336/327 293/335/326
f 295/337/328 293/335/326 294/336/327
f 293/335/326 295/337/328 296/338/329
f 296/338/329 288/330/321 293/335/326
f 297/339/330 296/338/329 295/337/328
f 294/336/327 292/334/325 298/340/331
f 299/341/332 298/340/331 292/334/325
f 292/334/325 284/326/317 299/341/332
f 298/340/331 299/341/332 300/342/333
f 301/343/334 300/342/333 299/341/332
f 300/342/333 301/343/334 302/344/335
f 303/345/336 302/344/335 301/343/334
f 301/343/334 279/321/312 303/345/336
f 278/320/311 303/345/336 279/321/312
f 279/321/312 301/343/334 281/323/314
f 299/341/332 281/323/314 301/343/334
f 302/344/335 303/345/336 304/346/337
f 305/347/338 304/346/337 303/345/336
f 304/346/337 305/347/338 306/348/339
f 307/349/340 306/348/339 305/347/338
f 305/347/338 308/350/341 307/349/340
f 305/347/338 303/345/336 308/350/341
f 278/320/311 308/350/341 303/345/336
f 309/351/342 307/349/340 308/350/341
f 307/349/340 309/351/342 310/352/343
f 311/353/344 310/352/343 309/351/342
f 311/353/344 312/354/345 310/352/343
f 313/355/346 310/352/343 312/354/345
f 313/355/346 312/354/345 314/356/347
f 313/355/346 315/357/348 310/352/343
f 315/357/348 313/355/346 316/358/349
f 317/359/350 316/358/349 313/355/346
f 318/360/351 310/352/343 315/357/348
f 306/348/339 307/349/340 318/360/351
f 310/352/343 318/360/351 307/349/340
f 319/361/352 313/355/346 314/356/347
f 317/359/350 313/355/346 319/361/352
f 320/362/353 321/363/354 322/364/355
f 323/365/356 322/364/355 321/363/354
f 322/364/355 323/365/356 324/366/357
f 325/367/358 324/366/357 323/365/356
f 320/362/353 12/368/359 321/363/354
f 324/366/357 325/367/358 326/369/360
f 327/370/361 326/369/360 325/367/358
f 326/369/360 327/370/361 328/371/362
f 329/372/363 328/371/362 327/370/361
f 328/371/362 329/372/363 330/373/364
f 331/374/365 330/373/364 329/372/363
f 330/373/364 331/374/365 332/375/366
f 333/376/367 332/375/366 331/374/365
f 332/375/366 333/376/367 334/377/368
f 335/378/369 334/377/368 333/376/367
f 334/377/368 335/378/369 336/379/370
f 337/380/371 336/381/370 335/382/369
f 336/381/370 337/380/371 338/383/372
f 339/384/373 338/385/372 337/386/371
f 338/385/372 339/384/373 340/387/374
f 341/388/375 340/389/376 339/390/377
f 342/391/378 320/362/379 343/392/380
f 322/364/381 343/392/380 320/362/379
f 343/392/380 322/364/381 344/393/382
f 324/366/383 344/393/382 322/364/381
f 344/393/382 324/366/383 345/394/384
f 326/369/385 345/394/384 324/366/383
f 345/394/384 326/369/385 346/395/386
f 328/371/387 346/395/386 326/369/385
f 328/371/387 330/373/388 346/395/386
f 347/396/389 346/395/386 330/373/388
f 330/373/388 332/375/390 347/396/389
f 348/397/391 347/396/389 332/375/390
f 348/397/391 332/375/390 349/398/392
f 334/377/393 349/398/392 332/375/390
f 349/398/392 334/377/393 350/399/394
f 336/379/395 350/399/394 334/377/393
f 350/399/394 336/379/395 351/400/396
f 338/401/397 351/400/396 336/379/395
f 338/401/397 340/402/398 351/400/396
f 352/403/399 351/400/396 340/402/398
f 346/1/386 347/1/389 190/1/209
f 191/1/212 190/1/209 347/1/389
f 350/1/394 351/1/396 194/1/217
f 195/1/219 194/1/217 351/1/396
f 349/1/392 350/1/394 193/1/215
f 194/1/217 193/1/215 350/1/394
f 351/1/396 352/1/399 195/1/219
f 196/1/222 195/1/219 352/1/399
f 348/1/391 349/1/392 192/1/214
f 193/1/215 192/1/214 349/1/392
f 347/1/389 348/1/391 191/1/212
f 192/1/214 191/1/212 348/1/391
f 353/404/400 300/342/333 354/405/401
f 302/344/335 354/405/401 300/342/333
f 354/405/401 355/406/402 353/404/400
f 356/407/403 353/404/400 355/406/402
f 355/406/402 357/408/404 356/407/403
f 358/409/405 356/407/403 357/408/404
f 358/409/405 357/408/404 359/410/406
f 360/411/407 359/410/406 357/408/404
f 300/342/333 353/404/400 298/340/331
f 361/412/408 298/340/331 353/404/400
f 353/404/400 356/407/403 361/412/408
f 358/409/405 359/410/406 362/413/409
f 363/414/410 362/413/409 359/410/406
f 356/407/403 358/409/405 364/415/411
f 362/413/409 364/415/411 358/409/405
f 364/415/411 361/412/408 356/407/403
f 363/414/410 359/410/406 365/416/412
f 366/417/413 365/416/412 359/410/406
f 359/410/406 367/418/414 366/417/413
f 359/410/406 360/411/407 367/418/414
f 357/408/404 355/406/402 368/419/415
f 357/408/404 368/419/415 360/411/407
f 369/420/416 368/419/415 355/406/402
f 368/419/415 369/420/416 370/421/417
f 371/422/418 370/421/417 369/420/416
f 369/420/416 372/423/419 371/422/418
f 373/424/420 371/422/418 372/423/419
f 372/423/419 304/346/337 373/424/420
f 304/346/337 372/423/419 302/344/335
f 354/405/401 302/344/335 372/423/419
f 372/423/419 369/420/416 354/405/401
f 306/348/339 373/424/420 304/346/337
f 355/406/402 354/405/401 369/420/416
f 373/424/420 306/348/339 374/425/421
f 318/360/351 374/425/421 306/348/339
f 370/421/417 371/422/418 375/426/422
f 370/421/417 375/426/422 376/427/423
f 368/419/415 370/421/417 376/427/423
f 376/427/423 375/426/422 377/428/424
f 378/429/425 377/428/424 375/426/422
f 377/428/424 379/430/426 376/427/423
f 380/431/427 375/426/422 371/422/418
f 371/422/418 373/424/420 380/431/427
f 374/425/421 380/431/427 373/424/420
f 375/426/422 380/431/427 378/429/425
f 380/431/427 374/425/421 381/432/428
f 381/432/428 378/429/425 380/431/427
f 381/432/428 382/433/429 378/429/425
f 381/432/428 383/434/430 382/433/429
f 383/434/430 381/432/428 374/425/421
f 374/425/421 318/360/351 383/434/430
f 384/435/431 382/433/429 383/434/430
f 385/436/432 378/429/425 382/433/429
f 383/434/430 315/357/348 384/435/431
f 315/357/348 383/434/430 318/360/351
f 316/358/349 384/435/431 315/357/348
f 376/437/423 379/438/426 360/439/407
f 386/440/433 360/441/407 379/442/426
f 376/427/423 360/411/407 368/419/415
f 385/436/432 387/443/434 378/429/425
f 377/428/424 378/429/425 387/443/434
f 377/428/424 387/443/434 379/430/426
f 388/444/435 379/438/426 387/445/434
f 386/446/433 367/447/414 360/439/407
f 281/323/314 299/341/332 284/326/317
f 389/448/436 390/449/437 391/450/438
f 392/451/439 391/450/438 390/449/437
f 392/451/439 297/339/330 391/450/438
f 295/337/328 391/450/438 297/339/330
f 390/449/437 389/448/436 393/452/440
f 394/453/441 393/452/440 389/448/436
f 393/452/440 394/453/441 395/454/442
f 396/455/443 395/454/442 394/453/441
f 395/454/442 396/455/443 397/456/444
f 398/457/445 397/456/444 396/455/443
f 394/453/441 399/458/446 396/455/443
f 394/453/441 389/448/436 399/458/446
f 400/459/447 396/455/443 399/458/446
f 396/455/443 400/459/447 398/457/445
f 401/460/448 399/458/446 389/448/436
f 389/448/436 391/450/438 401/460/448
f 402/461/449 401/460/448 391/450/438
f 391/450/438 295/337/328 402/461/449
f 403/462/450 398/457/445 400/459/447
f 294/336/327 402/461/449 295/337/328
f 402/461/449 294/336/327 361/412/408
f 298/340/331 361/412/408 294/336/327
f 399/458/446 362/413/409 400/459/447
f 399/458/446 401/460/448 362/413/409
f 363/414/410 400/459/447 362/413/409
f 400/459/447 363/414/410 403/462/450
f 364/415/411 362/413/409 401/460/448
f 361/412/408 364/415/411 402/461/449
f 401/460/448 402/461/449 364/415/411
f 365/416/412 403/462/450 363/414/410
f 397/456/444 404/463/451 395/454/442
f 404/463/451 405/464/452 406/465/453
f 407/466/454 406/465/453 405/464/452
f 406/465/453 407/466/454 408/467/455
f 409/468/456 408/467/455 407/466/454
f 408/467/455 409/468/456 410/469/457
f 411/470/458 410/469/457 409/468/456
f 411/470/458 412/471/459 410/469/457
f 412/471/459 392/451/439 410/469/457
f 390/449/437 410/469/457 392/451/439
f 410/469/457 390/449/437 408/467/455
f 412/471/459 413/472/460 392/451/439
f 297/339/330 392/451/439 413/472/460
f 413/472/460 414/473/461 297/339/330
f 414/473/461 413/472/460 415/474/462
f 413/472/460 412/471/459 415/474/462
f 411/470/458 415/474/462 412/471/459
f 416/475/463 414/473/461 415/474/462
f 296/338/329 297/339/330 414/473/461
f 414/473/461 416/475/463 296/338/329
f 288/330/321 296/338/329 416/475/463
f 416/475/463 417/476/464 288/330/321
f 416/475/463 415/474/462 417/476/464
f 287/329/320 288/330/321 417/476/464
f 393/452/440 408/467/455 390/449/437
f 417/476/464 418/477/465 287/329/320
f 291/333/324 287/329/320 418/477/465
f 417/476/464 419/478/466 418/477/465
f 419/478/466 417/476/464 415/474/462
f 419/478/466 415/474/462 420/479/467
f 411/470/458 420/479/467 415/474/462
f 420/479/467 411/470/458 421/480/468
f 409/468/456 421/480/468 411/470/458
f 409/468/456 407/466/454 421/480/468
f 422/481/469 421/480/468 407/466/454
f 405/464/452 422/481/469 407/466/454
f 408/467/455 393/452/440 406/465/453
f 395/454/442 406/465/453 393/452/440
f 406/465/453 395/454/442 404/463/451
f 312/1/470 15/1/471 314/1/472
f 19/1/473 314/1/472 15/1/471
f 311/1/474 15/1/471 312/1/470
f 309/1/475 15/1/471 311/1/474
f 15/1/471 309/1/475 13/1/476
f 308/1/477 13/1/476 309/1/475
f 314/1/472 19/1/473 319/1/478
f 423/1/479 319/1/478 19/1/473
f 319/1/478 423/1/479 317/1/480
f 424/1/480 317/1/480 423/1/479
f 13/1/476 308/1/477 7/1/481
f 278/1/482 7/1/481 308/1/477
f 31/1/36 29/1/34 74/1/79
f 77/1/82 74/1/79 29/1/34
f 29/482/34 24/483/29 77/484/82
f 83/82/88 77/76/82 24/18/29
f 24/18/29 22/16/27 83/82/88
f 84/83/89 83/82/88 22/16/27
f 22/16/27 38/32/43 84/83/89
f 91/90/96 84/83/89 38/32/43
f 342/1/378 343/1/380 187/1/204
f 186/1/203 187/1/204 343/1/380
f 343/1/380 344/1/382 186/1/203
f 188/1/205 186/1/203 344/1/382
f 344/1/382 345/1/384 188/1/205
f 189/1/207 188/1/205 345/1/384
f 345/1/384 346/1/386 189/1/207
f 190/1/209 189/1/207 346/1/386
f 187/1/204 167/1/181 70/1/75
f 70/1/75 342/1/378 187/1/204
f 12/1/483 342/1/378 70/1/75
f 342/485/484 12/486/123 320/487/485
f 425/1/486 426/1/487 427/1/487
f 425/1/486 428/1/487 426/1/487
f 429/1/487 426/1/487 428/1/487
f 428/1/487 430/1/487 429/1/487
f 428/1/487 431/1/488 430/1/487
f 432/1/488 430/1/487 431/1/488
f 432/488/488 431/489/488 433/490/489
f 434/491/490 433/490/489 431/489/488
f 425/1/486 427/1/487 434/1/490
f 433/490/489 434/491/490 427/492/487
f 435/493/491 436/494/492 437/495/493
f 438/496/494 437/496/493 436/496/492
f 439/1/489 440/1/495 441/1/489
f 439/1/489 442/1/487 440/1/495
f 443/1/487 440/1/495 442/1/487
f 442/497/487 444/498/487 443/499/487
f 442/497/487 445/500/487 444/498/487
f 446/501/486 444/502/487 445/503/487
f 447/1/489 446/1/486 445/1/487
f 447/504/489 445/505/487 448/506/487
f 449/1/486 448/1/487 445/1/487
f 439/507/489 441/508/489 449/509/486
f 449/1/486 450/1/489 448/1/487
f 450/510/489 449/511/486 441/512/489
f 451/1/496 452/1/497 453/1/497
f 451/1/496 454/1/496 452/1/497
f 455/1/497 452/1/497 454/1/496
f 456/1/498 455/1/497 454/1/496
f 456/1/498 454/1/496 457/1/496
f 458/1/496 457/1/496 454/1/496
f 458/513/496 459/514/499 457/515/496
f 459/516/499 458/517/496 460/518/500
f 461/519/496 460/518/500 458/517/496
f 453/520/497 462/521/496 451/522/496
f 463/1/498 451/1/496 462/1/496
f 462/1/496 464/1/496 463/1/498
f 465/1/496 463/1/498 464/1/496
f 466/1/496 467/1/497 468/1/497
f 466/1/496 469/1/496 467/1/497
f 470/523/496 467/524/497 469/525/496
f 469/526/496 471/526/497 470/526/496
f 469/527/496 472/528/500 471/529/497
f 473/530/501 471/529/497 472/528/500
f 473/531/501 472/532/500 474/533/499
f 475/534/502 474/533/499 472/532/500
f 466/1/496 468/1/497 475/1/502
f 474/535/499 475/536/502 468/537/497
f 476/538/503 477/539/504 478/540/505
f 479/541/504 478/540/506 477/539/503
f 478/542/506 479/543/504 480/544/504
f 481/545/507 480/546/504 479/547/504
f 481/548/507 482/549/508 480/544/504
f 482/550/508 483/551/509 480/552/504
f 484/553/509 480/554/504 483/555/509
f 485/556/507 482/549/508 481/548/507
f 481/548/507 486/557/504 485/556/507
f 487/558/504 485/559/507 486/560/504
f 488/561/510 489/562/511 467/563/512
f 468/564/513 467/565/512 489/566/511
f 467/565/512 470/567/514 488/568/510
f 490/569/515 488/561/510 470/570/514
f 470/1/514 471/1/516 490/1/515
f 491/1/517 490/1/515 471/1/516
f 468/564/513 489/566/511 474/571/518
f 492/572/519 474/571/518 489/566/520
f 491/1/517 471/1/516 493/1/521
f 473/1/521 493/1/521 471/1/516
f 494/573/522 495/574/523 477/539/523
f 479/575/523 477/576/523 495/577/523
f 496/1/524 497/1/525 498/1/526
f 496/1/524 499/1/527 497/1/525
f 500/1/524 497/1/524 499/1/528
f 499/1/528 501/1/524 500/1/524
f 499/1/528 502/1/525 501/1/524
f 503/578/524 501/579/524 502/580/525
f 504/1/524 503/1/524 502/1/525
f 504/1/524 502/1/525 505/1/529
f 506/1/524 505/1/529 502/1/525
f 496/581/524 498/582/526 506/583/524
f 506/1/524 507/1/524 505/1/529
f 507/584/524 506/583/524 498/582/526
f 508/585/530 509/586/531 500/587/532
f 497/588/533 500/589/532 509/590/531
f 500/1/532 501/1/534 508/1/530
f 510/591/535 508/592/530 501/593/534
f 501/1/534 503/1/536 510/1/535
f 511/1/537 510/1/535 503/1/536
f 503/1/536 504/1/538 511/1/537
f 512/1/539 511/1/537 504/1/538
f 504/594/538 505/595/540 512/596/539
f 513/1/541 512/1/539 505/1/540
f 505/1/540 507/1/542 513/1/541
f 514/1/543 513/1/541 507/1/542
f 507/597/542 498/598/544 514/599/543
f 515/600/545 514/599/543 498/598/544
f 509/601/531 515/602/545 497/603/533
f 498/582/544 497/603/533 515/602/545
f 516/1/546 517/1/547 499/1/546
f 502/604/547 499/605/546 517/606/547
f 518/607/548 519/608/549 520/609/548
f 518/610/548 521/611/550 519/612/549
f 522/613/549 519/608/551 521/614/548
f 521/1/548 523/1/549 522/1/549
f 521/615/548 524/616/550 523/617/549
f 525/618/549 523/617/549 524/616/550
f 525/1/549 524/1/549 526/1/550
f 527/619/548 526/620/550 524/621/549
f 518/622/548 520/623/548 527/624/548
f 526/620/550 527/619/548 520/609/548
f 528/625/552 529/626/553 519/627/554
f 520/609/555 519/608/554 529/628/553
f 519/627/554 522/629/556 528/625/552
f 530/1/557 528/1/552 522/1/556
f 522/1/556 523/1/558 530/1/557
f 531/1/559 530/1/557 523/1/558
f 523/1/558 525/1/560 531/1/559
f 532/1/560 531/1/559 525/1/560
f 529/630/553 533/631/561 520/632/555
f 526/633/561 520/632/555 533/631/561
f 534/1/562 535/1/563 521/1/562
f 524/616/563 521/615/562 535/634/563
f 536/635/564 537/636/565 538/637/566
f 536/635/564 539/638/567 537/636/565
f 540/639/568 537/636/565 539/638/567
f 541/640/569 540/639/568 539/638/567
f 538/637/566 542/641/570 536/635/564
f 543/642/571 536/635/564 542/641/570
f 543/642/571 542/641/570 544/643/572
f 544/643/572 545/644/573 543/642/571
f 546/645/574 543/642/571 545/644/573
f 541/640/569 539/638/567 547/646/575
f 547/646/575 539/638/567 548/647/576
f 549/648/577 548/647/576 539/638/567
f 550/649/578 548/647/576 549/648/577
f 549/648/577 551/650/579 550/649/578
f 551/650/579 549/648/577 552/651/580
f 553/652/581 552/651/580 549/648/577
f 554/653/582 555/654/583 556/655/584
f 556/655/584 557/656/585 554/653/582
f 558/657/586 554/653/582 557/656/585
f 555/654/583 554/653/582 559/658/587
f 559/658/587 554/653/582 560/659/588
f 561/660/589 560/659/588 554/653/582
f 562/661/590 560/659/588 561/660/589
f 561/660/589 563/662/591 562/661/590
f 563/662/591 561/660/589 564/663/592
f 565/664/593 564/663/592 561/660/589
f 558/657/586 566/665/594 565/664/593
f 557/656/585 566/665/594 558/657/586
f 567/666/595 565/664/593 566/665/594
f 564/663/592 565/664/593 567/666/595
f 568/667/596 569/668/596 570/669/597
f 571/670/598 570/669/597 569/668/596
f 570/669/597 571/670/598 572/671/599
f 573/672/600 572/671/599 571/670/598
f 573/672/600 574/673/601 572/671/599
f 575/674/602 572/671/599 574/673/601
f 575/674/602 576/675/603 572/671/599
f 577/676/604 572/671/599 576/675/603
f 574/673/601 578/677/605 575/674/602
f 579/678/606 575/674/602 578/677/605
f 578/677/605 580/679/607 579/678/606
f 581/680/608 579/678/606 580/679/607
f 547/646/575 548/647/576 560/659/588
f 559/658/587 560/659/588 548/647/576
f 544/643/572 542/641/570 582/681/609
f 583/682/610 582/681/609 542/641/570
f 583/682/610 574/673/601 582/681/609
f 573/672/600 582/681/609 574/673/601
f 584/683/611 585/684/612 586/685/613
f 584/683/611 586/685/613 587/686/614
f 588/687/615 587/686/614 586/685/613
f 587/686/614 588/687/615 589/688/616
f 585/684/612 584/683/611 590/689/617
f 584/683/611 591/690/618 590/689/617
f 592/691/619 590/689/617 591/690/618
f 593/692/620 592/691/619 591/690/618
f 591/690/618 594/693/621 593/692/620
f 591/690/618 595/694/622 594/693/621
f 595/694/622 587/686/614 596/695/623
f 597/696/624 596/695/623 587/686/614
f 589/688/616 597/696/624 587/686/614
f 598/697/625 594/693/621 595/694/622
f 599/698/626 598/697/625 595/694/622
f 599/698/626 595/694/622 596/695/623
f 600/699/627 601/700/628 602/701/629
f 600/699/627 602/701/629 603/702/630
f 604/703/631 603/702/630 602/701/629
f 603/702/630 604/703/631 605/704/632
f 606/705/633 605/704/632 604/703/631
f 606/705/633 607/706/634 605/704/632
f 608/707/635 605/704/632 607/706/634
f 608/707/635 607/706/634 609/708/636
f 600/699/627 608/707/635 610/709/637
f 601/700/628 600/699/627 610/709/637
f 611/710/638 610/709/637 608/707/635
f 609/708/636 611/710/638 608/707/635
f 610/709/637 611/710/638 612/711/639
f 613/712/640 612/711/639 611/710/638
f 613/712/640 596/695/623 612/711/639
f 597/696/624 612/711/639 596/695/623
f 567/666/595 566/665/594 592/691/619
f 590/689/617 592/691/619 566/665/594
f 614/713/641 615/714/642 616/715/643
f 617/716/644 616/715/643 615/714/642
f 615/714/642 618/717/645 617/716/644
f 619/718/646 617/716/644 618/717/645
f 618/719/645 620/720/647 619/721/646
f 621/722/648 619/723/646 620/724/647
f 619/1/646 621/1/648 622/1/649
f 623/496/649 622/496/649 621/496/648
f 620/725/647 618/717/645 624/726/650
f 625/727/650 624/726/650 618/717/645
f 622/1/649 626/1/649 619/1/646
f 617/1/644 619/1/646 626/1/649
f 626/1/649 627/1/651 617/1/644
f 616/1/643 617/1/644 627/1/651
f 618/717/645 615/714/642 625/727/650
f 628/728/650 625/727/650 615/714/642
f 615/714/642 614/713/641 628/728/650
f 629/729/652 628/728/650 614/713/641
f 630/730/653 631/731/654 632/732/655
f 633/733/656 632/732/655 631/731/654
f 631/731/654 630/730/653 634/734/657
f 635/735/658 634/734/657 630/730/653
f 634/736/657 635/737/658 636/738/659
f 637/739/660 636/740/659 635/741/658
f 635/1/658 638/1/649 637/1/660
f 639/1/649 637/1/660 638/1/649
f 636/742/659 640/743/650 634/734/657
f 641/744/650 634/734/657 640/743/650
f 638/1/649 635/1/658 642/1/649
f 630/745/653 642/746/649 635/747/658
f 642/1/649 630/1/653 643/1/661
f 632/1/655 643/1/661 630/1/653
f 634/734/657 641/744/650 631/731/654
f 644/748/650 631/731/654 641/744/650
f 631/731/654 644/748/650 633/733/656
f 645/749/662 633/733/656 644/748/650
f 646/750/201 647/751/663 648/752/203
f 649/753/204 648/752/203 647/751/663
f 648/752/203 650/754/205 646/750/201
f 651/755/206 646/750/201 650/754/205
f 650/754/205 652/756/664 651/755/206
f 653/757/208 651/755/206 652/756/664
f 652/756/664 654/758/209 653/757/208
f 655/759/210 653/757/208 654/758/209
f 655/759/210 654/758/209 656/760/211
f 657/761/212 656/760/211 654/758/209
f 656/760/211 657/761/212 658/762/213
f 659/763/214 658/762/213 657/761/212
f 659/763/214 660/764/665 658/762/213
f 661/765/666 658/762/213 660/764/665
f 660/764/665 662/766/667 661/765/666
f 663/767/668 661/765/666 662/766/667
f 662/766/667 664/768/669 663/767/668
f 665/769/670 663/767/668 664/768/669
f 665/769/670 664/768/669 666/770/671
f 667/771/672 666/770/671 664/768/669
f 668/772/378 669/773/379 670/774/380
f 671/775/381 670/774/380 669/773/673
f 670/774/380 671/775/381 672/776/674
f 673/777/383 672/776/674 671/775/381
f 672/776/674 673/777/383 674/778/384
f 675/779/385 674/778/384 673/777/383
f 674/778/384 675/779/385 676/780/386
f 677/781/387 676/780/386 675/779/385
f 677/781/387 678/782/388 676/780/386
f 679/783/389 676/780/386 678/782/388
f 678/782/388 680/784/390 679/783/389
f 681/785/391 679/783/389 680/784/390
f 681/785/391 680/784/390 682/786/675
f 683/787/676 682/786/675 680/784/390
f 682/786/675 683/787/676 684/788/677
f 685/789/678 684/788/677 683/787/676
f 684/788/677 685/789/678 686/790/679
f 687/791/680 686/790/679 685/789/678
f 687/791/680 688/792/681 686/790/679
f 689/793/682 686/790/679 688/792/681
f 676/526/386 679/526/389 654/526/209
f 657/526/212 654/526/209 679/526/389
f 684/496/677 686/496/679 662/496/667
f 664/496/669 662/496/667 686/496/679
f 682/786/675 684/788/677 660/764/665
f 662/766/667 660/764/665 684/788/677
f 686/790/679 689/793/682 664/768/669
f 667/771/672 664/768/669 689/793/682
f 681/785/391 682/786/675 659/763/214
f 660/764/665 659/763/214 682/786/675
f 679/526/389 681/526/391 657/526/212
f 659/526/214 657/526/212 681/526/391
f 668/772/378 670/774/380 649/753/204
f 648/752/203 649/753/204 670/774/380
f 670/1/380 672/1/674 648/1/203
f 650/794/205 648/795/203 672/796/674
f 672/797/674 674/798/384 650/799/205
f 652/1/664 650/1/205 674/1/384
f 674/1/384 676/1/386 652/1/664
f 654/526/209 652/526/664 676/526/386
f 669/773/683 690/800/354 671/775/684
f 691/1/685 671/1/684 690/1/354
f 671/775/684 691/801/685 673/777/686
f 692/526/687 673/526/686 691/526/685
f 669/1/683 693/1/359 690/1/354
f 673/802/686 692/803/687 675/804/360
f 694/1/361 675/1/360 692/1/687
f 675/1/360 694/1/361 677/1/362
f 695/1/363 677/1/362 694/1/361
f 677/1/362 695/1/363 678/1/688
f 696/1/365 678/1/688 695/1/363
f 678/1/688 696/1/365 680/1/689
f 697/1/367 680/1/689 696/1/365
f 680/784/689 697/805/367 683/787/690
f 698/1/691 683/1/690 697/1/367
f 683/1/690 698/1/691 685/1/692
f 699/1/693 685/1/692 698/1/691
f 685/789/692 699/806/693 687/791/694
f 700/1/695 687/1/694 699/1/693
f 687/1/694 700/1/695 688/1/696
f 701/807/697 688/808/696 700/809/698
