# Blender 3.6.21
# www.blender.org
mtllib corona.mtl
o Cubo_002.005
v 1.236903 -0.097059 -1.706983
v 1.629218 3.064543 -0.320161
v 1.366393 -0.101588 -1.708161
v 1.118142 -0.094008 -1.655225
v -0.541045 -0.045034 -1.223123
v 0.930533 -0.092798 -1.409757
v 0.868872 -0.094682 -1.225500
v 0.832104 -0.098151 -1.009144
v 0.821633 -0.103066 -0.769029
v 0.837865 -0.109243 -0.514374
v 0.880168 -0.116449 -0.254955
v 0.946926 -0.124404 -0.000749
v 1.035569 -0.132788 0.238466
v 1.142682 -0.141300 0.453505
v 1.264163 -0.149609 0.636113
v -0.030890 -0.113804 1.083386
v 1.531163 -0.164331 0.877448
v 1.666425 -0.170187 0.926904
v 1.795915 -0.174727 0.925737
v 1.914677 -0.177768 0.873968
v 2.018117 -0.179213 0.773612
v 2.102285 -0.178978 0.628511
v 2.163936 -0.177094 0.444244
v 2.200703 -0.173635 0.227898
v 2.211174 -0.168710 -0.012217
v 2.194954 -0.162532 -0.266882
v 2.152650 -0.155326 -0.526291
v 2.085892 -0.147382 -0.780497
v 1.997249 -0.138988 -1.019712
v 1.890136 -0.130475 -1.234762
v 1.768655 -0.122178 -1.417359
v 1.637484 -0.114404 -1.560511
v 1.501655 -0.107445 -1.658694
v 0.234890 -0.055195 -1.492982
v 0.655889 3.920096 -0.088248
v 1.288168 -0.087958 -1.691147
v 0.011960 -0.048963 -1.419008
v -1.047154 -0.018331 -1.114865
v -0.368160 -0.041875 -1.132499
v -0.510734 -0.041286 -0.930983
v -0.613907 -0.042721 -0.700473
v -0.673726 -0.046136 -0.449833
v -0.687892 -0.051383 -0.188689
v -0.655846 -0.058278 0.072915
v -0.578830 -0.066533 0.324925
v -0.459801 -0.075859 0.557663
v -0.303340 -0.085881 0.762188
v -0.115443 -0.096213 0.930630
v 0.096652 -0.106459 1.056523
v -0.313800 -0.096716 1.271198
v 0.560232 -0.125143 1.163121
v 0.793912 -0.132863 1.139727
v 1.016842 -0.139094 1.065752
v 1.784095 -0.160819 0.823849
v 1.396951 -0.146182 0.779244
v 1.539526 -0.146771 0.577728
v 1.642709 -0.145337 0.347217
v 1.702529 -0.141921 0.096577
v 1.716684 -0.136675 -0.164566
v 1.684637 -0.129790 -0.426170
v 1.607622 -0.121524 -0.678181
v 1.488593 -0.112199 -0.910918
v 1.332131 -0.102188 -1.115443
v 1.144245 -0.091856 -1.283886
v 0.932150 -0.081609 -1.409778
v 0.703995 -0.071833 -1.488282
v -0.931572 -0.030804 -1.244580
v -0.539247 3.130798 0.142242
v -0.802082 -0.035333 -1.245758
v -1.050323 -0.027753 -1.192823
v -1.153774 -0.026318 -1.092466
v -1.237942 -0.026543 -0.947365
v -1.299593 -0.028427 -0.763098
v -1.336361 -0.031896 -0.546752
v -1.346832 -0.036811 -0.306627
v -1.330600 -0.042989 -0.051972
v -1.288297 -0.050194 0.207448
v -1.221550 -0.058150 0.461642
v -1.132906 -0.066533 0.700869
v -1.025783 -0.075045 0.915908
v -0.904312 -0.083354 1.098516
v -0.773130 -0.091127 1.241657
v -0.637312 -0.098076 1.339851
v -0.502051 -0.103933 1.389307
v -0.372550 -0.108472 1.388129
v -0.253798 -0.111513 1.336371
v -0.150348 -0.112959 1.236015
v 1.836923 -0.170873 0.685097
v -0.004529 -0.110839 0.906646
v 0.032239 -0.107370 0.690301
v 0.042710 -0.102455 0.450175
v 0.026478 -0.096277 0.195520
v -0.015825 -0.089071 -0.063899
v -0.082583 -0.081127 -0.318094
v -0.171215 -0.072733 -0.557320
v -0.278339 -0.064221 -0.772359
v -0.399820 -0.055923 -0.954967
v 0.562738 -0.081566 -1.331339
v -0.666820 -0.041190 -1.196302
vn 0.1618 0.4663 -0.8697
vn 0.4663 0.1618 -0.8697
vn -0.7071 -0.7071 -0.0000
vn 0.2831 0.3517 -0.8923
vn -0.3353 -0.2023 0.9201
vn -0.4167 0.8066 -0.4193
vn -0.4167 0.8066 -0.4192
vn -0.4817 0.8230 -0.3012
vn -0.4817 0.8229 -0.3012
vn -0.5201 0.8296 -0.2029
vn -0.5419 0.8322 -0.1173
vn -0.5419 0.8322 -0.1174
vn -0.5517 0.8331 -0.0384
vn -0.5517 0.8331 -0.0385
vn -0.5517 0.8332 0.0384
vn -0.5517 0.8331 0.0383
vn -0.5419 0.8322 0.1173
vn -0.5201 0.8296 0.2029
vn -0.4817 0.8230 0.3012
vn -0.3243 -0.1260 -0.9375
vn 0.2434 0.3656 0.8984
vn -0.1198 0.6701 0.7325
vn 0.1618 0.4663 0.8697
vn 0.4663 0.1618 0.8697
vn 0.6701 -0.1198 0.7325
vn 0.7665 -0.3063 0.5646
vn 0.7664 -0.3063 0.5646
vn 0.8066 -0.4167 0.4193
vn 0.8076 -0.4173 0.4167
vn 0.8230 -0.4817 0.3012
vn 0.8296 -0.5201 0.2029
vn 0.8322 -0.5419 0.1173
vn 0.8322 -0.5419 0.1174
vn 0.8331 -0.5517 0.0384
vn 0.8331 -0.5518 -0.0384
vn 0.8331 -0.5517 -0.0384
vn 0.8322 -0.5419 -0.1173
vn 0.8296 -0.5201 -0.2029
vn 0.8230 -0.4817 -0.3012
vn 0.8229 -0.4817 -0.3012
vn 0.8066 -0.4167 -0.4193
vn 0.7664 -0.3063 -0.5646
vn 0.7665 -0.3063 -0.5646
vn 0.6701 -0.1198 -0.7325
vn 0.1772 0.3521 -0.9190
vn 0.2858 0.2474 -0.9258
vn -0.7071 -0.7071 0.0016
vn -0.7071 -0.7071 -0.0001
vn 0.2089 0.3196 -0.9242
vn -0.3490 -0.0495 0.9358
vn -0.2654 0.7313 -0.6283
vn -0.3550 0.7968 -0.4890
vn -0.4171 0.8398 -0.3476
vn -0.4171 0.8397 -0.3476
vn -0.4560 0.8655 -0.2074
vn -0.4746 0.8775 -0.0689
vn -0.4746 0.8775 0.0689
vn -0.4560 0.8655 0.2074
vn -0.4171 0.8397 0.3476
vn -0.3550 0.7968 0.4890
vn -0.2654 0.7313 0.6283
vn -0.4019 0.0364 -0.9150
vn -0.4019 0.0364 -0.9149
vn 0.1953 0.3336 0.9222
vn 0.1772 0.3521 0.9190
vn 0.3521 0.1772 0.9190
vn 0.3402 0.1889 0.9212
vn 0.0877 -0.4316 -0.8978
vn 0.7313 -0.2654 0.6283
vn 0.7968 -0.3550 0.4890
vn 0.8397 -0.4171 0.3476
vn 0.8655 -0.4560 0.2074
vn 0.8655 -0.4560 0.2073
vn 0.8775 -0.4746 0.0689
vn 0.8775 -0.4746 0.0688
vn 0.8775 -0.4746 -0.0689
vn 0.8775 -0.4746 -0.0688
vn 0.8655 -0.4560 -0.2074
vn 0.8397 -0.4171 -0.3476
vn 0.8398 -0.4171 -0.3476
vn 0.7968 -0.3550 -0.4890
vn 0.7313 -0.2654 -0.6283
vn 0.6370 -0.1451 -0.7571
vn -0.1366 -0.3364 0.9318
vn -0.7071 -0.7071 0.0001
vn -0.1198 0.6701 -0.7325
vn -0.1198 0.6702 -0.7325
vn -0.3063 0.7665 -0.5646
vn -0.3063 0.7664 -0.5646
vn -0.3063 0.7665 -0.5645
vn -0.5517 0.8331 0.0384
vn -0.5517 0.8331 0.0385
vn -0.4167 0.8066 0.4193
vn -0.3063 0.7665 0.5646
vn -0.3063 0.7664 0.5646
vn 0.3508 0.2573 0.9004
vn -0.1564 -0.3028 -0.9401
vn 0.8297 -0.5201 -0.2029
vn -0.0877 -0.3507 0.9324
vn 0.3826 0.2271 -0.8956
s 0
usemtl Material.007
f 4//1 2//1 1//1
f 1//2 2//2 3//2
f 1//3 3//3 33//3 32//3 31//3 30//3 29//3 28//3 27//3 26//3 25//3 24//3 23//3 22//3 21//3 20//3 19//3 18//3 17//3 16//3 15//3 14//3 13//3 12//3 11//3 10//3 9//3 8//3 7//3 6//3 5//3 4//3
f 5//4 2//4 4//4
f 6//5 2//5 5//5
f 7//6 2//7 6//6
f 8//8 2//9 7//9
f 9//10 2//10 8//10
f 10//11 2//12 9//11
f 11//13 2//14 10//13
f 12//15 2//16 11//15
f 13//17 2//17 12//17
f 14//18 2//18 13//18
f 15//19 2//19 14//19
f 16//20 2//20 15//20
f 17//21 2//21 16//21
f 18//22 2//22 17//22
f 19//23 2//23 18//23
f 20//24 2//24 19//24
f 21//25 2//25 20//25
f 22//26 2//27 21//27
f 23//28 2//29 22//28
f 24//30 2//30 23//30
f 25//31 2//31 24//31
f 26//32 2//33 25//32
f 27//34 2//34 26//34
f 28//35 2//36 27//36
f 29//37 2//37 28//37
f 30//38 2//38 29//38
f 31//39 2//39 30//40
f 32//41 2//41 31//41
f 33//42 2//42 32//43
f 3//44 2//44 33//44
f 37//45 35//45 34//45
f 34//46 35//46 36//46
f 34//3 36//3 66//3 65//3 64//3 63//3 62//3 61//3 60//3 59//3 58//3 57//3 56//3 55//3 54//3 53//3 52//3 51//3 50//3 49//3 48//3 47//3 46//3 45//3 44//3 43//3 42//3 41//3 40//3 39//47 38//48 37//3
f 38//49 35//49 37//49
f 39//50 35//50 38//50
f 40//51 35//51 39//51
f 41//52 35//52 40//52
f 42//53 35//54 41//54
f 43//55 35//55 42//55
f 44//56 35//56 43//56
f 45//57 35//57 44//57
f 46//58 35//58 45//58
f 47//59 35//59 46//59
f 48//60 35//60 47//60
f 49//61 35//61 48//61
f 50//62 35//62 49//63
f 51//64 35//64 50//64
f 52//65 35//65 51//65
f 53//66 35//66 52//66
f 54//67 35//67 53//67
f 55//68 35//68 54//68
f 56//69 35//69 55//69
f 57//70 35//70 56//70
f 58//71 35//71 57//71
f 59//72 35//73 58//72
f 60//74 35//75 59//74
f 61//76 35//77 60//76
f 62//78 35//78 61//78
f 63//79 35//80 62//80
f 64//81 35//81 63//81
f 65//82 35//82 64//82
f 66//83 35//83 65//83
f 36//84 35//84 66//84
f 70//1 68//1 67//1
f 67//2 68//2 69//2
f 67//3 69//3 99//3 98//3 97//3 96//3 95//3 94//3 93//3 92//3 91//3 90//3 89//3 88//85 87//3 86//3 85//3 84//3 83//3 82//3 81//3 80//3 79//3 78//3 77//3 76//3 75//3 74//3 73//3 72//3 71//3 70//3
f 71//86 68//87 70//86
f 72//88 68//89 71//90
f 73//6 68//6 72//7
f 74//8 68//9 73//9
f 75//10 68//10 74//10
f 76//11 68//12 75//11
f 77//13 68//14 76//13
f 78//91 68//92 77//91
f 79//17 68//17 78//17
f 80//18 68//18 79//18
f 81//19 68//19 80//19
f 82//93 68//93 81//93
f 83//94 68//95 82//95
f 84//22 68//22 83//22
f 85//23 68//23 84//23
f 86//24 68//24 85//24
f 87//25 68//25 86//25
f 88//96 68//96 87//96
f 89//97 68//97 88//97
f 90//30 68//30 89//30
f 91//31 68//31 90//31
f 92//32 68//32 91//32
f 93//34 68//34 92//34
f 94//35 68//36 93//36
f 95//37 68//37 94//37
f 96//98 68//98 95//98
f 97//39 68//39 96//39
f 98//99 68//99 97//99
f 99//100 68//100 98//100
f 69//44 68//44 99//44
o Cubo_002.007
v 1.420282 0.671103 0.681521
v 1.158946 1.012046 0.747069
v 1.366961 0.678512 0.430399
v 1.755539 0.940245 0.618275
v 1.702218 0.947654 0.367153
v 1.494203 1.281187 0.683823
v 1.440882 1.288597 0.432701
v 1.105625 1.019455 0.495947
v 0.575201 1.227653 0.923852
v 0.367228 1.454748 0.974710
v 0.313907 1.462157 0.723589
v 0.521880 1.235051 0.672731
v 0.537427 1.676061 0.682442
v 0.745399 1.448966 0.631583
v 0.590747 1.668652 0.933563
v 0.798720 1.441557 0.882705
v 0.345022 0.967376 0.969132
v 0.362110 1.452093 0.979807
v 0.285491 0.975653 0.688780
v 0.788227 0.953832 0.874622
v 0.728696 0.962109 0.594270
v 0.805305 1.438548 0.885296
v 0.745774 1.446814 0.604945
v 0.302579 1.460358 0.699444
v 0.557802 0.733846 0.912985
v 0.349829 0.960942 0.963843
v 0.504470 0.741256 0.661852
v 0.781310 0.947751 0.871827
v 0.727990 0.955160 0.620705
v 0.573338 1.174857 0.922696
v 0.520017 1.182255 0.671564
v 0.296498 0.968351 0.712721
v -0.195724 0.720484 1.026115
v -0.457060 1.061427 1.091663
v -0.249045 0.727893 0.774993
v 0.139533 0.989626 0.962868
v 0.086213 0.997035 0.711747
v -0.121803 1.330568 1.028417
v -0.175123 1.337977 0.777295
v -0.510381 1.068836 0.840541
vn -0.0000 -0.0000 1.0000
vn -0.9962 0.0872 -0.0000
vn -0.0872 -0.9962 -0.0000
vn 0.9962 -0.0872 -0.0000
vn 0.0872 0.9962 -0.0000
vn -0.0000 -0.0000 -1.0000
vn -1.0000 -0.0000 -0.0000
vn 1.0000 -0.0000 -0.0000
vn -0.0000 -1.0000 -0.0000
vn -0.0000 1.0000 -0.0000
vn -0.7071 0.7071 -0.0000
vn -0.7071 -0.7071 -0.0000
vn 0.7071 -0.7071 -0.0000
vn 0.7071 0.7071 -0.0000
s 0
usemtl Material.008
f 103//101 105//101 101//101 100//101
f 100//102 101//102 107//102 102//102
f 102//103 104//103 103//103 100//103
f 104//104 106//104 105//104 103//104
f 106//105 107//105 101//105 105//105
f 102//106 107//106 106//106 104//106
f 108//107 109//107 110//107 111//107
f 111//106 110//106 112//106 113//106
f 113//108 112//108 114//108 115//108
f 115//101 114//101 109//101 108//101
f 111//109 113//109 115//109 108//109
f 112//110 110//110 109//110 114//110
f 119//101 121//101 117//101 116//101
f 116//111 117//111 123//111 118//111
f 118//112 120//112 119//112 116//112
f 120//113 122//113 121//113 119//113
f 122//114 123//114 117//114 121//114
f 118//106 123//106 122//106 120//106
f 127//101 129//101 125//101 124//101
f 124//107 125//107 131//107 126//107
f 126//109 128//109 127//109 124//109
f 128//108 130//108 129//108 127//108
f 130//110 131//110 125//110 129//110
f 126//106 131//106 130//106 128//106
f 135//101 137//101 133//101 132//101
f 132//102 133//102 139//102 134//102
f 134//103 136//103 135//103 132//103
f 136//104 138//104 137//104 135//104
f 138//105 139//105 133//105 137//105
f 134//106 139//106 138//106 136//106
